<?xml version="1.0" encoding="utf-8"?>
<!-- Generator: Adobe Illustrator 16.0.0, SVG Export Plug-In . SVG Version: 6.00 Build 0)  -->
<!DOCTYPE svg PUBLIC "-//W3C//DTD SVG 1.1//EN" "http://www.w3.org/Graphics/SVG/1.1/DTD/svg11.dtd">
<svg version="1.1" id="Layer_1" xmlns="http://www.w3.org/2000/svg" xmlns:xlink="http://www.w3.org/1999/xlink" x="0px" y="0px"
	 width="1854.451px" height="525.274px" viewBox="0 0 1854.451 525.274" enable-background="new 0 0 1854.451 525.274"
	 xml:space="preserve">
<g>
	<path fill="#FFFFFF" d="M1663.458,379.405c102.951,1.426,190.383-84.836,190.99-188.438
		c0.607-104.085-84.463-190.398-188.223-190.965c-104.031-0.571-190.135,84.19-191.199,188.218
		C1473.965,291.55,1559.125,377.958,1663.458,379.405z M1665.108,85.264c57.973,0.052,103.688,45.424,104.037,103.271
		c0.367,58.874-46.404,106.354-104.582,106.182c-56.682-0.173-104.146-47.275-104.85-104.053
		C1558.995,132.576,1606.36,85.211,1665.108,85.264z"/>
	<path fill="#FFFFFF" d="M287.748,432.769H158.195h-4.396h-8.217h-18.389l27.835-65.062c5.409-13.718,10.726-27.481,16.194-41.178
		c31.047-77.717,62.1-155.45,93.859-234.958c11.169-27.962,22.422-56.132,33.8-84.615c0.021-0.052,0.042-0.104,0.063-0.157
		c-0.021,0-0.042,0-0.063,0c-80.248,0-156.213,0-232.176,0H0v84.772h10.813h136.012h3.432h0.854h22.728l-7.388,18.549
		c-0.818,2.556-1.877,5.364-3.144,8.477C120.775,223.189,79.141,328.145,36.7,432.769L7.887,507.615L3.81,517.997h44.297h255.269
		v-85.229H287.748z"/>
	<path fill="#FFFFFF" d="M871.149,336.035c-0.154-4.818-0.176-9.637-0.275-14.456h0.113V3.221h-85.824v20.851
		c-0.283,2.482-0.417,5.251-0.377,8.421c0.197,15.984,0.27,31.97,0.377,47.955v241.132h0.247c0.002,6.55-0.013,13.093-0.005,19.643
		c0.031,23.868-3.563,46.311-20.405,64.8c-29.481,32.373-87.093,43.065-134.693,24.859c-39.979-15.285-57.778-44.491-57.842-95.689
		c-0.107-89.486-0.031-178.978-0.031-268.464c0-2.767-0.003-5.362-0.008-7.882V3.109h-85.824v318.359l0.626,26.202
		c0.042,17.859,1.702,35.661,6.673,53.049c21.813,76.299,94.588,125.851,186.185,124.529
		C784.041,523.755,875.378,468.75,871.149,336.035z"/>
	<path fill="#FFFFFF" d="M1261.262,6.159h-38.174h-78.879c-11.305-0.089-22.609-0.199-33.914-0.331
		c-1.957-0.023-3.625,0.113-5.166,0.331h-13.125v39.634c-0.199,5.395-0.23,10.059,0,14.073v25.573h85.098h8.432v10.945v239.179
		h0.037c-0.074,10.063-0.094,20.13-0.221,30.192c-0.535,42.919-22.504,63.222-64.662,66.793h-12.459h-40.502h-16.328v83.225h10.828
		h76.865c2.947-0.288,5.889-0.629,8.814-1.059c7.66-1.122,14.928-2.764,21.955-4.703c61.238-16.916,97.865-64.244,100.078-132.064
		c0.461-14.121,0.697-28.252,0.813-42.384h0.016v-1.116c0.121-15.595,0.094-31.194,0-46.794v-78.771
		c0.063,0,0.131-0.003,0.193-0.003c0-41.146,0.006-82.295,0.016-123.44h0.031v-62.98v-0.31V6.159H1261.262z"/>
	<rect x="1492.92" y="433.555" fill="#FFFFFF" width="339.117" height="84.307"/>
</g>
</svg>
