<svg id="Layer_1" data-name="Layer 1" xmlns="http://www.w3.org/2000/svg" xmlns:xlink="http://www.w3.org/1999/xlink" viewBox="0 0 1280 830">

  <defs>
    <style>.cls-1,.cls-10,.cls-11,.cls-12,.cls-13,.cls-2,.cls-3,.cls-4,.cls-5,.cls-6,.cls-7,.cls-8,.cls-9{fill:none;stroke-miterlimit:10;}
      .cls-1{stroke:#282828;stroke-width:0.25px;}
      .cls-11,.cls-12, .cls-8,.cls-9,.cls-13,.cls-2{stroke-width:0.5px;stroke-dasharray:5 5;}
      .cls-2{stroke:url(#linear-gradient);}
      .cls-3{stroke:url(#linear-gradient-2);}
      .cls-4{stroke:url(#linear-gradient-3);}
      .cls-5{stroke:url(#linear-gradient-4);}
      .cls-6{stroke:url(#linear-gradient-5);}
      .cls-7{stroke:url(#linear-gradient-6);}
      .cls-8{stroke:url(#linear-gradient-7);}
      .cls-9{stroke:url(#linear-gradient-8);}
      .cls-10{stroke:url(#linear-gradient-9);}
      .cls-11{stroke:url(#linear-gradient-10);}
      .cls-12{stroke:url(#linear-gradient-11);}
      .cls-13{stroke:url(#linear-gradient-12);}
      .cls-14{fill:#4378bb;}


      .path {
      stroke-dasharray: 5,5;
      stroke-dashoffset: 3000;
      animation: dash 45s linear 0s forwards infinite;
      }

      @keyframes dash {
      from {
         stroke-dashoffset: 3000;
      }

      to {
         stroke-dashoffset: 0;
      }
      }

    </style>
      <linearGradient id="linear-gradient" x1="-85.6" y1="207.88" x2="1342.16" y2="207.88" gradientUnits="userSpaceOnUse"><stop offset="0"/>
      <stop offset="0.15" stop-color="#001021"/><stop offset="0.42" stop-color="#003167"/>
      <stop offset="0.42" stop-color="#013368"/><stop offset="0.49" stop-color="#0a5582"/>
      <stop offset="0.57" stop-color="#127197"/><stop offset="0.65" stop-color="#1787a7"/>
      <stop offset="0.75" stop-color="#1c97b3"/><stop offset="0.85" stop-color="#1ea0ba"/>
      <stop offset="1" stop-color="#1fa3bc"/></linearGradient>
      <linearGradient id="linear-gradient-2" x1="-85.6" y1="420.91" x2="1342.16" y2="420.91" xlink:href="#linear-gradient"/>
      <linearGradient id="linear-gradient-3" x1="-83.24" y1="527.65" x2="770.75" y2="527.65" gradientUnits="userSpaceOnUse"><stop offset="0"/>
      <stop offset="0.07" stop-color="#00050b"/><stop offset="0.2" stop-color="#001429"/><stop offset="0.36" stop-color="#002a59"/>
      <stop offset="0.41" stop-color="#003167"/><stop offset="0.77" stop-color="#14799d"/><stop offset="1" stop-color="#1fa3bc"/> </linearGradient>
      <linearGradient id="linear-gradient-4" x1="202.95" y1="315.83" x2="770.75" y2="315.83" xlink:href="#linear-gradient-3"/>
      <linearGradient id="linear-gradient-5" x1="-83.06" y1="528.33" x2="1341.46" y2="528.33" xlink:href="#linear-gradient"/>
      <linearGradient id="linear-gradient-6" x1="-79.61" y1="315.72" x2="1341.46" y2="315.72" xlink:href="#linear-gradient"/>
      <linearGradient id="linear-gradient-7" x1="-82.64" y1="635.57" x2="770.34" y2="635.57" xlink:href="#linear-gradient-3"/>
      <linearGradient id="linear-gradient-8" x1="-85.6" y1="635.83" x2="1342.16" y2="635.83" xlink:href="#linear-gradient"/>
      <linearGradient id="linear-gradient-9" x1="-82.64" y1="421.14" x2="1342.16" y2="421.14" xlink:href="#linear-gradient"/>
      <linearGradient id="linear-gradient-10" x1="-85.6" y1="207.89" x2="770.34" y2="207.89" xlink:href="#linear-gradient-3"/>
      <linearGradient id="linear-gradient-11" x1="-2.53" y1="313.76" x2="1280" y2="313.76" xlink:href="#linear-gradient"/>
      <linearGradient id="linear-gradient-12" x1="0" y1="528.16" x2="1280" y2="528.16" xlink:href="#linear-gradient"/>
    </defs><title>Artboard 2 copy 12</title>
    <line class="cls-1" x1="203.02" y1="528.94" x2="203.02" y2="800"/>
    <line class="cls-1" x1="203.02" y1="101.01" x2="203.02" y2="316.8"/>
    <line class="cls-1" x1="203.02" x2="203.02" y2="51.06"/>
    <line class="cls-1" x1="487.83" x2="487.83" y2="808.82"/>
    <line class="cls-1" x1="772.64" x2="772.64" y2="808.82"/>
    <line class="cls-1" x1="1057.45" x2="1057.45" y2="808.82"/>
    <path class="cls-2 path" d="M-85.57,312.87h0s75.7,3.48,142.64-90.16S150.1,102.88,199,102.88h4c48.91,0,75,26.19,142,119.83s142.64,90.16,142.64,90.16h0s75.69,3.48,142.64-90.16,93-119.83,142-119.83H773c48.9,0,75,26.19,142,119.83s142.64,90.16,142.64,90.16h0s75.7,3.48,142.64-90.16,93-119.83,142-119.83"/>
    <path class="cls-3" d="M1342.16,312.88c-48.9,0-75,26.94-142,123.28s-142.64,92.76-142.64,92.76h0S981.9,532.5,915,436.16,821.91,312.88,773,312.88h-.81c-48.9,0-75,26.94-142,123.28s-142.64,92.76-142.64,92.76h0S411.94,532.5,345,436.16,252,312.88,203,312.88v1h-4c-48.9,0-75,26.19-141.95,119.83S-85.59,523.87-85.59,523.87h0"/>
    <path class="cls-4" d="M-82.38,742.41h-.85c68.44-.8,136.42-116.89,161.11-233.27C111.78,349.39,201,312.88,201,312.88h2s89.22,36.51,123.12,196.26c24.7,116.38,92.67,232.47,161.12,233.27h-.86c68.45-.8,136.42-116.89,161.12-233.27,33.9-159.75,123.12-196.26,123.12-196.26"/>
    <path class="cls-5" d="M203,528.78s89.22-36.2,123.12-194.6c24.7-115.38,92.67-230.49,161.12-231.28h-.86c68.45.79,136.42,115.9,161.12,231.28,33.9,158.4,123.12,194.6,123.12,194.6"/>
    <path class="cls-6" d="M-82.21,314.26h-.85c68.45.8,136.42,116.52,161.12,232.52C112,706,165.66,742.41,203,742.41c30.62,0,89.22-36.39,123.12-195.63,24.7-116,92.67-231.72,161.12-232.52h-.86c68.45.8,136.42,116.52,161.12,232.52C681.44,706,742.66,742.41,773.75,742.41c25.91,0,89.22-36.39,123.12-195.63,24.7-116,92.67-231.72,161.12-232.52h-.86c68.45.8,136.42,116.52,161.12,232.52,33.9,159.24,123.12,195.63,123.12,195.63"/>
    <path class="cls-7 " d="M1341.37,101.77s-89.22,36.29-123.12,195.11c-24.7,115.69-92.67,231.11-161.12,231.9h.86c-68.45-.79-136.42-116.21-161.12-231.9C863,138.06,806.16,103.57,773.21,103.57c-37.55,0-91.77,35.43-125.67,193.41-24.7,115.08-92.67,231.89-161.12,232.68h.86C418.83,528.87,349,412.44,326.16,297c-32-161.76-92-194.09-123.12-194.09C163.66,102.89,115.4,139,81.5,297,56.81,412.06-11.16,526.87-79.61,527.66h.85"/>
    <path class="cls-8 path" d="M-82.61,738.7h0S-6.94,742.18,60,648.54s93-119.82,142-119.82h4l-3,0c48.68,0,74.65,26.65,141.29,121.92s142,91.73,142,91.73h0s75.34,3.54,142-91.73,92.61-121.92,141.28-121.92h.81"/>
    <path class="cls-9 path" d="M-85.57,532.92h0s75.7-3.48,142.64,90.16S150.1,742.9,199,742.9h4v-.48c48.91,0,75-26.64,142-121.91s142.64-91.73,142.64-91.73h0s75.69-3.54,142.64,91.73,93,121.91,142,121.91H773c48.9,0,75-26.64,142-121.91s142.64-91.73,142.64-91.73h0s75.7-3.54,142.64,91.73,93,121.91,142,121.91"/>
    <path class="cls-10" d="M-82.61,319.41h0S-6.94,315.93,60,409.57s93,119.83,142,119.83h4l-3-.46c48.91,0,75-26.94,142-123.28S487.63,312.9,487.63,312.9h0s75.69-3.58,142.64,92.76,93,123.28,142,123.28H773c48.9,0,75-26.94,142-123.28S1057.6,312.9,1057.6,312.9h0s75.7-3.58,142.64,92.76,93,123.28,142,123.28"/>
    <path class="cls-11 path" d="M-85.57,102.92h0s75.7-3.48,142.64,90.16S150.1,312.91,199,312.91h4v0c48.68,0,74.65-26.18,141.29-119.82s142-90.16,142-90.16h0s75.34-3.48,142,90.16,92.61,119.82,141.28,119.82h.81"/>

    <line class="cls-12 path" x1="-2.53" y1="314.64" x2="1280" y2="312.88"/>
    <line class="cls-13 path" y1="529.91" x2="1280" y2="526.41"/>
    <rect class="cls-14 " x="199" y="99.56" width="7" height="7"/>
    <rect class="cls-14 " x="484.35" y="99.56" width="7" height="7"/>
    <rect class="cls-14 " x="769.71" y="99.56" width="7" height="7"/>
    <rect class="cls-14 " x="199" y="309.73" width="7" height="7"/>
    <rect class="cls-14 " x="484.35" y="309.73" width="7" height="7"/>
    <rect class="cls-14 " x="769.71" y="309.73" width="7" height="7"/>
    <rect class="cls-14 " x="1054.06" y="309.73" width="7" height="7"/>
    <rect class="cls-14 " x="199" y="525.9" width="7" height="7"/>
    <rect class="cls-14 " x="484.35" y="525.9" width="7" height="7"/>
    <rect class="cls-14 " x="769.71" y="525.9" width="7" height="7"/>
    <rect class="cls-14 " x="1054.06" y="525.9" width="7" height="7"/>
    <rect class="cls-14 " x="199" y="738.72" width="7" height="7"/>
    <rect class="cls-14 " x="484.35" y="738.72" width="7" height="7"/>
    <rect class="cls-14 " x="769.71" y="738.72" width="7" height="7"/></svg>
