<svg id="Layer_1" data-name="Layer 1" xmlns="http://www.w3.org/2000/svg" xmlns:xlink="http://www.w3.org/1999/xlink" viewBox="0 0 1756.53 1799.71"><defs><style>.cls-1{fill:url(#linear-gradient);}.cls-2{fill:none;stroke:#57acb2;stroke-miterlimit:10;}</style><linearGradient id="linear-gradient" x1="605.29" y1="455.93" x2="2240.71" y2="455.93" gradientTransform="translate(-522.84 380.52) rotate(2.57)" gradientUnits="userSpaceOnUse"><stop offset="0.15"/><stop offset="0.22" stop-color="#02060b"/><stop offset="0.35" stop-color="#071729"/><stop offset="0.47" stop-color="#0c2a4a"/><stop offset="0.53" stop-color="#0f4967"/><stop offset="0.62" stop-color="#136985"/><stop offset="0.7" stop-color="#16829d"/><stop offset="0.79" stop-color="#1794ae"/><stop offset="0.89" stop-color="#199fb8"/><stop offset="1" stop-color="#19a2bb"/></linearGradient></defs><title>Artboard 3 copy 9</title><path class="cls-1" d="M381.15,751.79l.47.14.55-1.87-.46-.14C381.52,750.54,381.33,751.17,381.15,751.79ZM943.61,385.87l3.86.5.06-.48-3.86-.5Zm-15.42-2.22,0,.49,3.86.39,0-.49ZM959,388.06c1.29.2,2.57.4,3.85.62l.07-.48-3.84-.62Zm-46.31-5.68,0,.48,3.89.28,0-.49Zm61.65,8.32,3.82.73.1-.47-3.83-.74Zm-77.21-9.14,0,.49,3.89.16,0-.49ZM989.6,393.8l3.8.85.1-.48-3.8-.85Zm-108-12.59v.49l3.89,0v-.49Zm123.18,16.14,3.77,1,.12-.47-3.77-1ZM866,381.33v.48l3.89-.07v-.49Zm153.8,20,3.74,1.07.13-.47-3.74-1.07ZM850.43,381.91l0,.48,3.89-.19,0-.48Zm184.27,23.9,3.7,1.19.15-.46-3.71-1.19ZM834.89,383l0,.48,3.88-.3,0-.49Zm214.58,27.76,3.67,1.3.16-.46-3.67-1.3ZM819.39,384.48l.05.48,3.87-.42,0-.48Q821.33,384.26,819.39,384.48Zm244.69,31.59,3.63,1.4.18-.45-3.63-1.41Zm-260.15-29.6.07.48,3.86-.54-.07-.48C806.5,386.1,805.22,386.28,803.93,386.47Zm274.6,35.39,3.58,1.51.19-.44-3.59-1.52Zm-290-32.93.09.47,3.83-.65-.08-.48Zm304.24,39.15,3.55,1.63.21-.44-3.56-1.63ZM773.25,391.85l.1.47,3.81-.77-.09-.48C775.8,391.32,774.52,391.58,773.25,391.85Zm333.66,42.91,3.5,1.73.22-.43-3.5-1.74ZM758.1,395.21l.12.48,3.77-.89-.11-.47Zm362.72,46.65c1.15.61,2.3,1.22,3.44,1.84l.23-.43c-1.14-.62-2.29-1.23-3.44-1.84ZM743.06,399l.13.47,3.74-1-.12-.47Zm391.44,50.34,3.39,1.94.24-.42-3.39-1.95ZM728.13,403.31l.14.47,3.72-1.11-.14-.47Zm419.82,54,3.32,2.05.25-.41c-1.1-.69-2.21-1.37-3.32-2.05ZM713.34,408l.15.46,3.68-1.22-.15-.46Zm447.8,57.59,3.26,2.14.27-.4-3.27-2.15ZM698.69,413.21l.16.46,3.65-1.33-.17-.46Zm475.38,61.14c1.07.74,2.13,1.49,3.19,2.24l.28-.4-3.19-2.24ZM684.19,418.82l.18.45,3.61-1.44-.18-.45Zm502.54,64.63,3.12,2.34.29-.39-3.12-2.34ZM669.87,424.87l.2.44,3.56-1.55-.2-.44Zm529.23,68.06,3.05,2.43.31-.38-3-2.43ZM655.73,431.34l.21.44,3.51-1.66-.2-.44Zm555.46,71.44,3,2.51.32-.37-3-2.52Zm-569.4-64.54.22.43,3.47-1.76-.22-.44C644.1,437.06,642.94,437.64,641.79,438.24ZM1223,513l2.9,2.61.33-.36-2.9-2.61Zm-594.9-67.42.23.42,3.41-1.86-.23-.43C630.33,444.3,629.19,444.92,628.06,445.55Zm606.37,78,2.82,2.69.33-.35c-.93-.9-1.87-1.8-2.82-2.69ZM614.55,453.27l.25.42,3.35-2-.24-.42C616.78,452,615.67,452.61,614.55,453.27Zm631,81.13c.92.92,1.83,1.85,2.74,2.77l.34-.34-2.73-2.77Zm-644.3-73,.26.41,3.3-2.06-.26-.42Zm655.11,84.22,2.65,2.85.35-.33-2.65-2.85Zm-668.14-75.7.28.4c1.07-.72,2.15-1.45,3.23-2.16l-.27-.41Zm678.61,87.22,2.56,2.93.36-.32-2.56-2.93ZM575.47,478.81l.29.4,3.16-2.26-.28-.4C577.58,477.3,576.52,478.05,575.47,478.81ZM1277,569c.83,1,1.65,2,2.47,3l.38-.31c-.82-1-1.65-2-2.48-3ZM563,488.09l.29.39,3.1-2.35-.29-.39Zm723.75,93c.79,1,1.59,2,2.38,3.07l.38-.3c-.79-1-1.58-2.05-2.38-3.07Zm-736-83.34.3.38,3-2.45-.31-.38Zm745.35,95.74,2.29,3.14.4-.28-2.29-3.15ZM538.82,507.76l.31.37,3-2.53-.31-.37Zm766.3,98.41,2.19,3.21.4-.28-2.19-3.21Zm-777.94-88,.33.36,2.88-2.62-.33-.36Zm786.56,101q1,1.62,2.1,3.27l.41-.26-2.1-3.28ZM515.87,528.85l.34.35,2.8-2.71-.34-.35ZM1322,632.29c.67,1.11,1.33,2.22,2,3.33l.42-.24c-.66-1.12-1.33-2.23-2-3.34ZM504.88,539.9l.35.33,2.71-2.79-.35-.34C506.68,538,505.78,539,504.88,539.9Zm824.93,105.82c.64,1.12,1.27,2.25,1.9,3.39l.42-.24c-.62-1.13-1.26-2.26-1.89-3.39ZM494.22,551.27l.36.33c.87-1,1.75-1.92,2.63-2.87l-.36-.33C496,549.35,495.09,550.31,494.22,551.27Zm843,108.09,1.8,3.45.43-.23-1.8-3.44ZM483.9,563l.37.31,2.54-2.95-.36-.32Zm860.36,110.25c.56,1.17,1.13,2.33,1.68,3.5l.44-.21c-.56-1.17-1.12-2.34-1.69-3.5ZM473.94,575l.38.3c.81-1,1.63-2,2.45-3l-.37-.31C475.57,572.94,474.76,574,473.94,575Zm876.91,112.31c.54,1.18,1.06,2.36,1.58,3.55l.45-.2c-.52-1.18-1.05-2.37-1.58-3.55Zm-886.51-100,.39.3c.78-1,1.57-2.07,2.36-3.1l-.38-.3C465.91,585.19,465.13,586.23,464.34,587.26ZM1357,701.53c.5,1.19,1,2.39,1.48,3.59l.45-.18c-.49-1.2-1-2.4-1.48-3.6ZM455.12,599.84l.39.29c.75-1.06,1.51-2.12,2.27-3.17l-.39-.29C456.63,597.73,455.87,598.78,455.12,599.84ZM1362.76,716c.46,1.21.91,2.42,1.36,3.63l.46-.17c-.45-1.21-.91-2.42-1.37-3.63ZM446.27,612.7l.41.27c.71-1.08,1.44-2.16,2.17-3.24l-.41-.27Zm921.79,117.83,1.26,3.67.46-.15-1.26-3.67ZM437.82,625.82l.41.26c.69-1.1,1.38-2.2,2.08-3.3l-.42-.26C439.2,623.62,438.5,624.72,437.82,625.82Zm935.1,119.44,1.14,3.71.47-.15c-.38-1.23-.76-2.47-1.15-3.7ZM429.76,639.2l.42.24c.66-1.12,1.31-2.24,2-3.36l-.42-.25Zm947.57,120.93c.35,1.25.69,2.5,1,3.75l.47-.13c-.34-1.25-.68-2.5-1-3.75ZM422.11,652.82l.43.23c.62-1.15,1.24-2.29,1.87-3.43l-.42-.23C423.36,650.53,422.73,651.67,422.11,652.82ZM1381.3,775.17c.31,1.26.62,2.52.92,3.79l.48-.12c-.31-1.26-.61-2.52-.93-3.78ZM414.88,666.66l.43.22,1.77-3.48-.43-.22Q415.75,664.92,414.88,666.66Zm969.94,123.67.81,3.81.47-.1q-.39-1.9-.81-3.81ZM408.07,680.73l.44.2c.55-1.18,1.1-2.36,1.66-3.53l-.44-.21C409.17,678.37,408.62,679.54,408.07,680.73Zm979.81,124.86.69,3.83.48-.08c-.23-1.28-.46-2.56-.7-3.83ZM401.68,695l.45.19c.51-1.2,1-2.39,1.55-3.59l-.44-.19C402.71,692.6,402.2,693.8,401.68,695Zm988.79,125.94c.2,1.28.39,2.56.58,3.85l.48-.07c-.19-1.29-.38-2.57-.58-3.86ZM395.73,709.46l.45.18c.48-1.22,1-2.43,1.45-3.64l-.45-.18C396.69,707,396.21,708.24,395.73,709.46ZM1392.6,836.35c.16,1.29.31,2.58.46,3.87l.48-.06c-.15-1.29-.3-2.58-.46-3.87ZM390.24,724l.46.16c.44-1.22.88-2.44,1.33-3.66l-.46-.17C391.13,721.59,390.68,722.81,390.24,724Zm1004,127.79c.12,1.29.23,2.58.34,3.87l.49,0c-.11-1.29-.23-2.59-.35-3.88ZM385.2,738.77l.46.15c.4-1.23.81-2.46,1.22-3.69l-.46-.16C386,736.3,385.6,737.54,385.2,738.77ZM1395.45,867.34c.08,1.3.16,2.59.23,3.89l.48,0c-.07-1.3-.14-2.59-.22-3.89Zm.73,15.55c0,1.29.07,2.59.1,3.89l.49,0c0-1.29-.07-2.59-.11-3.89Zm.25,15.56c0,1.29,0,2.59,0,3.89h.49c0-1.3,0-2.6,0-3.89Zm-.21,15.56c0,1.29-.08,2.59-.12,3.88l.48,0c.05-1.3.09-2.59.13-3.89Zm-.67,15.54-.24,3.89.48,0c.09-1.3.17-2.59.24-3.89Zm-1.14,15.52c-.11,1.29-.23,2.58-.35,3.87l.48,0c.12-1.29.24-2.58.35-3.87Zm-1.59,15.47-.11.93-.36,2.94.48.06.36-2.94.11-.93Zm-2.64,19.28.48.07c.2-1.28.4-2.56.59-3.85l-.48-.07C1390.58,977.25,1390.38,978.54,1390.18,979.82Zm-2.62,15.34.48.09c.24-1.28.47-2.56.7-3.84l-.48-.08C1388,992.61,1387.8,993.88,1387.56,995.16Zm-3.07,15.25.47.1c.28-1.26.55-2.53.81-3.8l-.47-.1Zm-3.53,15.16.47.11.93-3.78-.48-.11C1381.58,1023.05,1381.27,1024.31,1381,1025.57Zm-4,15,.47.13c.35-1.25.7-2.5,1-3.75l-.47-.13C1377.67,1038.11,1377.32,1039.36,1377,1040.61Zm-4.43,14.92.47.14c.38-1.23.77-2.47,1.15-3.72l-.47-.14C1373.31,1053.05,1372.93,1054.29,1372.54,1055.53Zm-4.88,14.77.46.16,1.26-3.68-.46-.16C1368.51,1067.85,1368.08,1069.08,1367.66,1070.3Zm-5.33,14.63.46.17c.46-1.21.92-2.43,1.37-3.64l-.45-.17C1363.25,1082.5,1362.8,1083.71,1362.33,1084.93Zm-5.76,14.45.45.19c.5-1.2,1-2.4,1.48-3.6l-.45-.19C1357.56,1097,1357.07,1098.18,1356.57,1099.38Zm-6.21,14.29.44.2c.54-1.19,1.07-2.38,1.6-3.57l-.44-.2C1351.43,1111.29,1350.9,1112.48,1350.36,1113.67Zm-6.66,14.13.44.22,1.71-3.52-.44-.21C1344.84,1125.46,1344.28,1126.63,1343.7,1127.8Zm-7.08,13.92.43.23c.61-1.15,1.21-2.31,1.82-3.47l-.44-.22C1337.83,1139.42,1337.23,1140.57,1336.62,1141.72Zm-7.49,13.69.42.24,1.92-3.4-.43-.24C1330.41,1153.15,1329.77,1154.28,1329.13,1155.41Zm-7.91,13.46.42.25,2-3.34-.41-.25C1322.57,1166.64,1321.9,1167.76,1321.22,1168.87Zm-8.31,13.2.41.27,2.12-3.28-.41-.26C1314.33,1179.89,1313.62,1181,1312.91,1182.07Zm-8.7,13,.4.28,2.22-3.22-.4-.27C1305.69,1192.88,1305,1194,1304.21,1195Zm-9.08,12.67.39.29c.78-1,1.54-2.09,2.31-3.14l-.39-.29Zm-9.46,12.39.38.3c.81-1,1.61-2,2.4-3.07l-.38-.3Zm-9.82,12.1.37.31,2.49-3-.37-.31ZM1265.66,1244l.37.33,2.58-2.93-.37-.32C1267.39,1242,1266.53,1243,1265.66,1244Zm-10.52,11.48.35.34,2.67-2.85-.36-.33C1256.92,1253.56,1256,1254.51,1255.14,1255.45ZM429,1158.93c.65,1.13,1.3,2.25,2,3.37l.42-.25c-.66-1.11-1.31-2.24-2-3.36Zm815.3,107.68.34.35c.92-.92,1.84-1.84,2.75-2.77l-.34-.34C1246.1,1264.78,1245.19,1265.7,1244.27,1266.61ZM437,1172.3c.68,1.11,1.37,2.21,2.06,3.31l.41-.26c-.69-1.1-1.38-2.2-2.06-3.3Zm796.12,105.14.33.35,2.83-2.68-.33-.35Zm-787.74-92,2.16,3.24.4-.27c-.72-1.07-1.44-2.15-2.15-3.23Zm776.23,102.5.32.37c1-.86,1.94-1.73,2.91-2.6l-.32-.36Zm-767.45-89.63,2.25,3.18.4-.29c-.76-1-1.51-2.11-2.25-3.17Zm755.64,99.76.31.38,3-2.5-.31-.38Zm-746.49-87.16,2.35,3.11.39-.3c-.79-1-1.57-2.06-2.35-3.1Zm734.38,96.94.3.38,3.06-2.41-.31-.38C1199.69,1306.23,1198.67,1307,1197.65,1307.83ZM472.8,1223.21c.81,1,1.63,2,2.44,3l.38-.31-2.44-3Zm712.46,94,.29.4,3.12-2.32-.29-.39Zm-702.56-82,2.53,3,.36-.32-2.52-3Zm689.89,91,.28.4c1.07-.73,2.13-1.47,3.19-2.22l-.27-.4C1174.72,1324.79,1173.66,1325.53,1172.59,1326.26ZM493,1247c.86,1,1.74,1.93,2.61,2.89l.36-.33c-.87-1-1.75-1.92-2.61-2.89Zm666.72,87.93.26.41c1.09-.71,2.18-1.41,3.26-2.13l-.26-.4ZM503.54,1258.4c.9.94,1.8,1.88,2.71,2.81l.34-.34-2.7-2.8Zm643,84.77.26.41,3.32-2-.26-.41Zm-632-73.66,2.78,2.72.34-.35-2.78-2.72ZM1133.09,1351l.24.43,3.37-1.93-.24-.42Zm-607.35-70.74,2.87,2.64.32-.36c-.95-.87-1.91-1.75-2.86-2.64Zm593.71,78.19.22.43,3.44-1.82-.23-.43Zm-582.13-67.76,2.95,2.56.31-.37-2.94-2.55Zm568.28,74.8.21.44,3.49-1.73-.22-.43Zm-556.39-64.72,3,2.47.31-.38-3-2.46Zm542.34,71.34.2.44c1.18-.54,2.36-1.07,3.53-1.62l-.2-.44ZM561.4,1310.51l3.1,2.38.29-.39-3.09-2.37Zm515.91,67.81.19.45,3.58-1.51-.2-.45C1079.7,1377.32,1078.5,1377.82,1077.31,1378.32Zm-503.43-58.46c1,.77,2.11,1.53,3.16,2.28l.29-.39-3.16-2.28Zm489,64.22.17.45,3.62-1.4-.17-.45Zm-476.26-55.25c1.07.74,2.15,1.46,3.23,2.19l.27-.41-3.23-2.18Zm461.68,60.57.16.46,3.66-1.29-.16-.46Zm-448.66-52,3.3,2.08.26-.41-3.3-2.08Zm433.94,56.86.15.46,3.69-1.18-.15-.46Zm-420.66-48.67,3.36,2,.24-.42c-1.12-.65-2.24-1.32-3.35-2Zm405.8,53.1.13.47,3.73-1.07-.13-.47Zm-392.28-45.32,3.42,1.88.23-.42L626.7,1353Zm377.29,49.31.11.47,3.78-1-.12-.47Zm-363.54-41.94,3.48,1.78.22-.43c-1.16-.59-2.32-1.18-3.47-1.78Zm348.38,45.48.1.47q1.9-.4,3.81-.84l-.11-.47Zm-334.4-38.53c1.17.57,2.35,1.12,3.52,1.68l.21-.44-3.52-1.67Zm319.15,41.61.09.48,3.82-.73-.09-.48Zm-305-35.08,3.58,1.57.19-.45c-1.2-.51-2.39-1-3.58-1.56ZM958,1411.94l.07.48,3.85-.61-.08-.48Zm-275.26-31.6,3.63,1.45.18-.45-3.63-1.45Zm259.84,33.75.07.49,3.86-.5-.06-.48ZM697.3,1386l3.67,1.34.16-.46-3.66-1.34Zm229.81,29.78,0,.48c1.29-.12,2.59-.24,3.88-.38l0-.48ZM712,1391.21l3.71,1.24.15-.47c-1.23-.4-2.47-.81-3.7-1.23ZM911.6,1417l0,.48,3.89-.26,0-.48Zm-184.7-21,3.75,1.12.14-.47-3.75-1.12Zm169.16,21.77v.48l3.9-.14,0-.49Zm-154.14-17.46,3.78,1,.12-.47c-1.26-.33-2.51-.66-3.77-1ZM880.5,1418v.48l3.89,0V1418ZM757,1404.15l3.79.89.11-.47-3.79-.9Zm107.91,13.69v.49l3.89.09v-.49C867.53,1417.91,866.24,1417.88,864.94,1417.84Zm-92.7-10.3,3.81.78.1-.48-3.82-.77Zm77.15,9.65,0,.49,3.89.2,0-.48Zm-61.86-6.71,3.84.67.08-.48-3.83-.67Zm46.35,5.6,0,.48c1.29.12,2.58.22,3.87.32l0-.48Zm-31-3.11,3.86.55.06-.49c-1.28-.17-2.57-.36-3.85-.55Zm15.5,1.54,0,.48,3.87.44,0-.48ZM422.26,1147c.31.57.62,1.14.94,1.71l.42-.23-.93-1.71ZM233.86,904.9l0,1.94h.49l0-2ZM945.62,259l0,.48,3.86.42.05-.48C948.2,259.31,946.91,259.17,945.62,259ZM961,261.33l3.85.51.07-.48-3.86-.51Zm-30.83-3.74,0,.49,3.85.32,0-.48Zm46.22,5.92,3.84.6.08-.48-3.85-.6Zm-61.74-7,0,.48c1.29.07,2.59.15,3.88.24l0-.49Zm77.07,9.53,3.82.69.09-.47-3.82-.7Zm-92.61-10.24v.48l3.88.15,0-.49ZM1007,269l3.8.78.1-.47-3.81-.79ZM883.57,255.47V256l3.89,0v-.49Zm138.61,16.76,3.79.88.11-.48-3.79-.87ZM868,255.51V256l3.89,0v-.49Zm169.28,20.36,3.76,1,.12-.48-3.76-1ZM852.47,255.93v.49l3.89-.14,0-.49Zm199.84,23.94,3.73,1.06.14-.47-3.74-1.06ZM836.94,256.72l0,.49,3.87-.24,0-.48Zm230.28,27.51,3.71,1.15.15-.46-3.72-1.15ZM821.43,257.89l0,.48,3.87-.32,0-.49ZM1082,289l3.68,1.24.16-.46-3.69-1.24ZM806,259.43l0,.49q1.93-.23,3.87-.42l0-.49ZM1096.71,294l3.66,1.32.16-.46-3.65-1.32ZM790.52,261.35l.06.48,3.85-.51-.06-.48C793.08,261,791.8,261.18,790.52,261.35Zm320.75,38.12,3.62,1.41.18-.45-3.62-1.41ZM775.13,263.65l.08.48,3.84-.61L779,263Zm350.57,41.61,3.58,1.5.19-.45-3.59-1.5ZM759.81,266.31l.09.48,3.82-.7-.08-.48ZM1140,311.4l3.57,1.59.2-.44-3.57-1.6Zm-395.41-42,.1.48,3.8-.79-.1-.48Zm409.6,48.56,3.52,1.68.21-.44-3.53-1.68ZM729.38,272.76l.12.48,3.78-.89-.11-.47Zm438.79,52,3.48,1.77.22-.44-3.48-1.76ZM714.3,276.54l.12.47,3.76-1-.12-.47ZM1182,332l3.43,1.85.23-.43-3.43-1.85ZM699.37,280.67l.13.46,3.72-1.06-.13-.47Zm496.29,58.8,3.39,1.94.24-.42c-1.13-.65-2.25-1.3-3.39-1.94ZM684.54,285.15l.14.47,3.7-1.16-.15-.46Zm524.59,62.18,3.34,2,.25-.41-3.34-2ZM669.82,290l.15.46,3.67-1.24-.16-.47Zm552.58,65.5c1.09.7,2.19,1.39,3.28,2.1l.26-.41-3.29-2.1ZM655.21,295.2l.17.46,3.64-1.34-.17-.45ZM1235.46,364l3.23,2.17.27-.4-3.23-2.18ZM640.73,300.75l.18.46,3.61-1.42-.18-.46ZM1248.3,372.8l3.18,2.25.28-.39c-1-.76-2.11-1.51-3.18-2.26ZM626.39,306.66l.19.44,3.57-1.5-.19-.45Zm634.54,75.25,3.12,2.33.29-.39-3.12-2.33Zm-648.74-69,.2.44,3.53-1.6-.2-.44Zm661.14,78.42c1,.79,2.05,1.59,3.06,2.4l.31-.38-3.07-2.41ZM598.14,319.5l.21.43,3.5-1.67-.21-.44C600.47,318.37,599.3,318.93,598.14,319.5ZM1285.5,401l3,2.47.31-.37c-1-.83-2-1.66-3-2.48ZM584.25,326.42l.22.44,3.45-1.77-.22-.43ZM1297.42,411l2.95,2.55.31-.37-2.94-2.54Zm-726.9-77.34.24.42c1.13-.62,2.27-1.23,3.41-1.84l-.23-.43Zm738.58,87.62,2.88,2.62.33-.36-2.88-2.62ZM557,341.28l.24.42,3.37-1.93-.24-.42Zm763.55,90.59,2.81,2.68.34-.35-2.82-2.68ZM543.61,349.19l.25.42,3.33-2-.25-.42Zm788.08,93.51,2.75,2.75.35-.35-2.75-2.75ZM530.44,357.43l.26.41c1.09-.7,2.18-1.4,3.28-2.09l-.27-.41Zm812.15,96.36c.9.93,1.79,1.87,2.69,2.81l.35-.33-2.69-2.82ZM517.46,366l.28.4,3.22-2.16-.27-.41Zm835.76,99.15,2.62,2.88.36-.33c-.87-1-1.74-1.92-2.62-2.87ZM504.7,374.84l.28.4,3.17-2.24-.28-.4Zm858.87,101.89,2.55,2.94.37-.32-2.55-2.94ZM492.14,384l.29.39,3.12-2.32-.29-.39Zm881.5,104.56,2.48,3,.37-.31-2.47-3ZM479.81,393.48l.3.38,3.06-2.39-.3-.39Zm903.61,107.17,2.4,3.05.38-.3c-.79-1-1.59-2-2.4-3ZM467.71,403.24l.3.37,3-2.46-.31-.38C469.71,401.59,468.7,402.41,467.71,403.24ZM1392.91,513l2.32,3.11.39-.29-2.32-3.11ZM455.84,413.29l.31.37c1-.85,2-1.7,3-2.54l-.32-.37C457.8,411.59,456.81,412.44,455.84,413.29Zm946.25,112.19c.76,1,1.51,2.11,2.25,3.16l.4-.28-2.25-3.17ZM444.21,423.62l.33.36c.95-.87,1.92-1.74,2.88-2.6l-.33-.37ZM1411,538.22l2.17,3.21.4-.27-2.17-3.22Zm-978.15-104,.34.35c.93-.9,1.87-1.79,2.82-2.68l-.34-.35Zm986.72,116.92c.7,1.09,1.4,2.18,2.09,3.27l.41-.26c-.69-1.09-1.39-2.18-2.09-3.27Zm-997.84-106,.34.35,2.76-2.75-.34-.34Zm1006.1,119.19,2,3.32.42-.25-2-3.32Zm-1017-108,.36.34c.89-.94,1.78-1.88,2.68-2.81l-.35-.34ZM1435.74,577.65c.65,1.12,1.3,2.24,1.94,3.36l.42-.24c-.64-1.12-1.29-2.25-1.94-3.36Zm-1035.48-110,.36.32,2.62-2.87-.35-.33Zm1043.1,123.48c.62,1.13,1.23,2.27,1.85,3.41l.43-.23c-.62-1.14-1.23-2.28-1.86-3.41ZM390,479.35l.37.32,2.55-2.94-.37-.32ZM1450.64,604.87l1.77,3.45.43-.22c-.58-1.15-1.17-2.31-1.77-3.45ZM379.92,491.27l.38.3,2.48-3-.38-.31ZM1457.59,618.73c.57,1.17,1.13,2.33,1.69,3.5l.44-.21c-.56-1.17-1.12-2.33-1.69-3.5ZM370.18,503.42l.38.3,2.41-3.06-.38-.3Zm1094,129.34c.54,1.18,1.07,2.35,1.6,3.53l.44-.2c-.53-1.18-1.06-2.36-1.6-3.53Zm-1103.48-117,.39.29,2.33-3.12-.38-.29ZM1470.48,646.94c.51,1.19,1,2.37,1.52,3.56l.44-.18c-.5-1.2-1-2.39-1.51-3.57ZM351.59,528.43l.39.28,2.26-3.18-.39-.28ZM1476.41,661.26c.48,1.2,1,2.4,1.43,3.6l.45-.18c-.47-1.2-1-2.4-1.43-3.6Zm-1133.66-120,.4.27c.73-1.08,1.45-2.16,2.18-3.23l-.4-.28ZM1482,675.71c.45,1.21.9,2.43,1.34,3.64l.46-.17-1.34-3.63ZM334.22,554.32l.41.26,2.1-3.28-.41-.27Zm1153,136c.42,1.22.84,2.44,1.25,3.66l.46-.15c-.41-1.23-.83-2.45-1.25-3.67ZM326,567.58l.42.25c.67-1.12,1.34-2.23,2-3.33l-.42-.26C327.36,565.35,326.68,566.46,326,567.58ZM1492.09,705c.39,1.23.78,2.46,1.16,3.69l.47-.15c-.39-1.23-.77-2.46-1.16-3.69Zm-1174-124,.42.24,1.94-3.38-.42-.24C319.42,578.78,318.77,579.9,318.13,581ZM1496.61,719.81c.36,1.23.72,2.47,1.07,3.71l.47-.13c-.36-1.24-.71-2.48-1.08-3.72Zm-1186-125.13.42.23,1.86-3.43-.42-.23C311.8,592.39,311.18,593.54,310.57,594.68Zm1190.19,140,1,3.75.47-.12-1-3.76ZM303.34,608.52l.44.22c.58-1.16,1.18-2.32,1.77-3.48l-.43-.22C304.52,606.2,303.93,607.36,303.34,608.52ZM1504.57,749.78c.3,1.26.6,2.52.89,3.79l.48-.11-.9-3.79ZM296.45,622.53l.44.21c.56-1.18,1.13-2.35,1.69-3.52l-.44-.21C297.58,620.18,297,621.35,296.45,622.53ZM1508,764.94c.27,1.27.53,2.53.8,3.8l.47-.1c-.26-1.27-.53-2.53-.8-3.8ZM289.91,636.71l.44.19c.53-1.18,1.07-2.37,1.61-3.55l-.44-.21C291,634.33,290.44,635.52,289.91,636.71ZM1511.08,780.17c.24,1.28.47,2.55.7,3.82l.48-.08c-.23-1.28-.47-2.55-.71-3.83ZM283.74,651l.45.19c.5-1.2,1-2.39,1.51-3.58l-.45-.19C284.74,648.59,284.24,649.79,283.74,651Zm1230,144.5c.21,1.28.42,2.56.62,3.84l.48-.08c-.2-1.28-.41-2.56-.62-3.84ZM277.91,665.4l.46.18c.47-1.21.94-2.41,1.42-3.62l-.45-.18ZM1516.1,810.85c.18,1.28.35,2.56.52,3.85l.48-.07c-.17-1.28-.34-2.57-.52-3.85ZM272.44,680l.46.17c.44-1.22.89-2.44,1.33-3.65l-.45-.17C273.33,677.53,272.88,678.74,272.44,680Zm1245.61,146.3c.15,1.29.29,2.58.43,3.86l.48,0c-.14-1.29-.28-2.57-.43-3.86ZM267.33,694.65l.46.15c.41-1.23.82-2.45,1.24-3.68l-.46-.15C268.15,692.19,267.74,693.42,267.33,694.65ZM1519.62,841.72c.12,1.29.23,2.58.34,3.87l.48,0c-.1-1.29-.22-2.58-.33-3.87Zm-1257-132.26.46.14c.39-1.24.77-2.48,1.16-3.71l-.46-.15C263.34,707,263,708.22,262.57,709.46ZM1520.82,857.22c.09,1.29.17,2.58.24,3.88l.49,0-.24-3.88ZM258.17,724.37l.47.14c.35-1.25.71-2.5,1.07-3.74l-.47-.14C258.88,721.88,258.52,723.13,258.17,724.37ZM1521.65,872.74c0,1.29.1,2.58.14,3.88l.49,0-.15-3.88ZM254.14,739.39l.47.12c.32-1.25.64-2.5,1-3.76l-.47-.12C254.78,736.88,254.46,738.14,254.14,739.39ZM1522.09,888.27c0,1.3,0,2.59.06,3.89h.48c0-1.3,0-2.59-.05-3.89ZM250.47,754.51l.47.11c.29-1.27.58-2.53.88-3.79l-.47-.11C251.05,752,250.76,753.24,250.47,754.51Zm1271.7,149.3c0,1.3,0,2.59,0,3.89h.48c0-1.29,0-2.59,0-3.88ZM247.16,769.7l.47.1c.26-1.27.53-2.54.8-3.8l-.48-.1C247.68,767.16,247.42,768.43,247.16,769.7Zm1274.7,149.65c0,1.29-.08,2.59-.13,3.88l.49,0c0-1.3.09-2.59.13-3.89ZM244.22,785l.48.09c.22-1.27.46-2.55.7-3.82l-.48-.09C244.68,782.42,244.45,783.7,244.22,785Zm1277,149.91c-.07,1.29-.15,2.58-.23,3.88l.49,0c.08-1.29.15-2.58.23-3.88ZM241.64,800.31l.48.08c.2-1.28.4-2.56.61-3.84l-.48-.08C242,797.75,241.84,799,241.64,800.31Zm1278.5,150.07c-.1,1.29-.2,2.57-.31,3.86l.48,0c.11-1.29.22-2.57.32-3.86ZM239.43,815.71l.48.06c.17-1.29.34-2.57.52-3.85l-.48-.07C239.77,813.14,239.6,814.42,239.43,815.71Zm1279.3,150.11c-.13,1.29-.27,2.58-.41,3.86l.49.06c.14-1.29.27-2.58.41-3.87ZM238,827.28c-.14,1.29-.29,2.58-.42,3.87l.48.05c.14-1.29.28-2.57.43-3.86ZM1516.45,985.11l.48.07c.18-1.29.34-2.57.51-3.86l-.49-.06C1516.79,982.54,1516.62,983.83,1516.45,985.11Zm-1280-142.35-.33,3.87.48,0c.11-1.29.22-2.58.34-3.87Zm1277.78,157.73.48.08c.2-1.28.4-2.56.59-3.85l-.48-.07C1514.61,997.93,1514.42,999.21,1514.22,1000.49Zm-1279-142.22c-.08,1.29-.17,2.58-.24,3.88l.48,0c.08-1.29.16-2.58.25-3.87Zm1276.37,157.54.48.09c.24-1.27.46-2.55.69-3.83l-.48-.08C1512.07,1013.26,1511.85,1014.54,1511.61,1015.81Zm-1277.2-142c-.06,1.29-.11,2.59-.15,3.88l.48,0,.15-3.88Zm1274.24,157.27.47.1c.27-1.27.52-2.54.78-3.81l-.48-.1C1509.17,1028.53,1508.91,1029.8,1508.65,1031.07ZM234,889.34l-.06,3.89h.49c0-1.3,0-2.59.06-3.89Zm1271.37,156.91.47.11.87-3.79-.48-.11C1505.9,1043.72,1505.61,1045,1505.32,1046.25Zm-3.7,15.09.47.12,1-3.77-.47-.11Zm-4.06,15,.47.14,1-3.75-.47-.13Zm-4.42,14.9.46.15,1.14-3.72-.46-.14Zm-4.78,14.79.46.15q.62-1.83,1.23-3.69l-.46-.15Zm-5.14,14.67.45.16c.45-1.22.89-2.43,1.32-3.66l-.46-.16C1484.1,1118.26,1483.66,1119.48,1483.22,1120.7Zm-5.5,14.53.46.18c.47-1.21.94-2.41,1.4-3.62l-.45-.18C1478.66,1132.82,1478.2,1134,1477.72,1135.23Zm-5.84,14.4.45.19c.5-1.19,1-2.39,1.49-3.59l-.45-.18C1472.88,1147.24,1472.38,1148.44,1471.88,1149.63Zm-6.2,14.27.44.2,1.59-3.57-.45-.19C1466.74,1161.53,1466.21,1162.72,1465.68,1163.9Zm-6.57,14.16.44.21c.56-1.18,1.12-2.35,1.67-3.53l-.44-.21C1460.23,1175.71,1459.67,1176.88,1459.11,1178.06Zm-6.91,14,.43.22,1.77-3.48-.44-.22C1453.38,1189.72,1452.79,1190.89,1452.2,1192Zm-7.24,13.81.42.23c.62-1.14,1.24-2.29,1.85-3.44l-.43-.22Zm-7.58,13.63.42.24c.65-1.13,1.29-2.26,1.93-3.39l-.43-.24C1438.67,1217.22,1438,1218.35,1437.38,1219.48Zm-7.91,13.43.42.25,2-3.34-.42-.25Zm-8.23,13.23.41.26c.7-1.09,1.4-2.19,2.09-3.29l-.41-.26C1422.64,1244,1421.94,1245.05,1421.24,1246.14Zm-8.54,13,.4.27,2.17-3.24-.4-.27Zm-8.86,12.81.4.28,2.25-3.18-.4-.28C1405.34,1269.86,1404.6,1270.92,1403.84,1272Zm-9.16,12.59.39.29c.78-1,1.55-2.08,2.32-3.13l-.39-.29C1396.23,1282.49,1395.46,1283.53,1394.68,1284.57ZM285,1151.65l1.53,3.57.45-.19c-.52-1.19-1-2.38-1.54-3.57Zm1100.19,145.28.38.3,2.4-3.07-.39-.3C1386.82,1294.89,1386,1295.91,1385.22,1296.93Zm-1093.93-131c.53,1.18,1.07,2.36,1.62,3.53l.44-.2c-.55-1.18-1.08-2.35-1.62-3.53Zm1084.17,143.18.38.31,2.47-3-.38-.31C1377.11,1307.06,1376.29,1308.06,1375.46,1309.06ZM297.89,1180c.56,1.16,1.13,2.33,1.7,3.49l.44-.21c-.58-1.16-1.14-2.33-1.7-3.49Zm1067.53,141,.37.32,2.54-3-.37-.31C1367.11,1319,1366.27,1320,1365.42,1320.94ZM304.82,1193.85c.59,1.15,1.19,2.3,1.79,3.45l.43-.22c-.6-1.15-1.2-2.3-1.79-3.45Zm1050.27,138.73.36.33,2.61-2.89-.36-.32Zm-1043-125c.62,1.13,1.24,2.27,1.87,3.4l.42-.23c-.62-1.13-1.25-2.27-1.86-3.41ZM1344.49,1344l.35.33,2.68-2.82-.35-.33ZM319.68,1221.14l1.95,3.36.42-.24c-.65-1.12-1.3-2.24-1.94-3.36Zm1013.94,133.95.34.34,2.75-2.75-.35-.35C1335.45,1353.26,1334.54,1354.17,1333.62,1355.09Zm-1006-120.57,2,3.31.41-.26c-.68-1.1-1.36-2.2-2-3.31ZM1322.49,1366l.33.35,2.81-2.69-.33-.35ZM335.85,1247.7,338,1251l.4-.26-2.1-3.27Zm975.25,128.83.33.36,2.87-2.62-.33-.36C1313,1374.79,1312.06,1375.66,1311.1,1376.53ZM344.4,1260.68l2.19,3.21.4-.28-2.19-3.21Zm955.06,126.16.32.36,2.94-2.55-.32-.36ZM353.27,1273.45c.75,1,1.5,2.11,2.26,3.16l.4-.29-2.27-3.15Zm934.31,123.41.31.37,3-2.48-.31-.37ZM362.44,1286l2.34,3.1.39-.29c-.79-1-1.57-2.07-2.34-3.1Zm913,120.58.3.38,3-2.4-.3-.39C1277.51,1405,1276.49,1405.79,1275.47,1406.59ZM371.91,1298.34l2.41,3.05.38-.3-2.41-3ZM1263.13,1416l.29.39,3.11-2.34-.29-.38ZM381.67,1310.45l2.49,3,.37-.31c-.83-1-1.66-2-2.48-3Zm868.9,114.71.28.4,3.16-2.26-.28-.39ZM391.73,1322.32l2.55,2.93.37-.32-2.56-2.93ZM1237.79,1434l.28.4,3.21-2.18-.27-.4ZM402.06,1333.94c.88,1,1.75,1.92,2.63,2.87l.36-.33-2.63-2.86Zm822.75,108.58.27.41,3.26-2.11-.26-.4Zm-812.13-97.2c.89.94,1.79,1.87,2.69,2.8l.35-.33c-.9-.94-1.8-1.87-2.69-2.81Zm799,105.4.25.42,3.31-2-.25-.41Zm-788.08-94.28,2.76,2.74.35-.35-2.77-2.74Zm774.71,102.17.24.42,3.36-1.94-.24-.42Zm-763.56-91.32,2.83,2.68.33-.36-2.82-2.67Zm750,98.88.23.42c1.14-.61,2.27-1.23,3.4-1.86l-.23-.42Zm-738.6-88.29,2.89,2.6.33-.36c-1-.86-1.93-1.73-2.89-2.6ZM1171,1473.4l.22.43,3.45-1.78-.22-.43Zm-713.21-85.21,3,2.53.31-.37-2.95-2.53Zm699.32,92.11.21.43,3.49-1.69-.21-.44Zm-687.41-82.09,3,2.47.31-.38-3-2.46Zm673.36,88.64.2.45,3.53-1.61-.21-.44ZM481.84,1408l3.08,2.39.29-.39-3.07-2.38Zm647,85.12.19.45c1.2-.5,2.38-1,3.57-1.52l-.19-.45Zm-634.61-75.68c1,.78,2.08,1.55,3.13,2.31l.29-.39c-1-.76-2.09-1.54-3.13-2.31Zm620.27,81.55.18.46,3.6-1.44-.18-.45Zm-607.66-72.41,3.18,2.24.28-.4c-1.06-.74-2.13-1.49-3.18-2.24ZM1100,1504.47l.16.45c1.21-.44,2.43-.89,3.64-1.35l-.18-.45Zm-580.37-69.11c1.08.73,2.16,1.45,3.25,2.16l.26-.4-3.23-2.16Zm565.76,74.28.16.46,3.66-1.26-.16-.46Zm-552.71-65.75L536,1446l.26-.42c-1.1-.69-2.2-1.38-3.29-2.08Zm538,70.56.15.46,3.69-1.17-.15-.46ZM546,1452.09l3.35,2,.25-.42-3.35-2Zm509.93,66.82.13.46q1.86-.52,3.72-1.08l-.14-.46ZM559.4,1460l3.39,1.92.24-.43-3.39-1.92Zm481.53,63,.13.47,3.76-1-.13-.47ZM573,1467.52l3.44,1.84.23-.43c-1.15-.61-2.3-1.22-3.44-1.84Zm452.82,59.23.11.48,3.78-.91-.11-.47Zm-439-52,3.48,1.75.22-.44-3.48-1.75Zm423.83,55.39.1.48,3.81-.81-.11-.48Zm-409.84-48.51,3.53,1.67.2-.45-3.52-1.66Zm394.6,51.52.08.48,3.83-.72-.1-.48Zm-380.44-45,3.56,1.58.2-.45-3.56-1.58Zm365.12,47.62.08.48,3.83-.63-.08-.48Zm-350.81-41.43,3.61,1.49.18-.45-3.6-1.49ZM964.75,1538l.06.48,3.85-.53-.07-.48Zm-321-37.85,3.64,1.41.17-.46-3.63-1.4Zm305.54,39.74,0,.48,3.87-.44-.06-.48Zm-290.94-34.25,3.68,1.32.16-.46c-1.22-.44-2.45-.87-3.67-1.32Zm275.47,35.76,0,.49,3.88-.35,0-.48Zm-260.72-30.63c1.23.42,2.47.83,3.7,1.23l.16-.46c-1.24-.41-2.48-.81-3.71-1.23Zm245.22,31.77,0,.48c1.3-.07,2.59-.16,3.88-.24l0-.49Zm-230.36-27,3.74,1.13.14-.46-3.74-1.14Zm214.84,27.75,0,.49,3.88-.16,0-.48ZM702.93,1520l3.74,1,.13-.47-3.74-1Zm184.37,23.74v.48c1.3,0,2.6,0,3.89-.06v-.48ZM718,1524l3.77,1,.12-.47-3.77-1Zm153.8,19.72v.48l3.89,0v-.49Zm-138.69-16,3.79.86.11-.48-3.79-.86Zm123.16,15.69,0,.48,3.89.13v-.49Zm-108-12.39,3.81.77.1-.48-3.81-.77Zm92.44,11.65,0,.49c1.29.07,2.58.15,3.88.21l0-.48Zm-77.17-8.71,3.83.67.09-.47-3.83-.68Zm61.68,7.61,0,.48,3.86.31,0-.48Zm-46.34-5,3.85.59.07-.49L779,1536Zm30.9,3.56-.06.49,3.87.4,0-.48Zm-15.5-1.35,3.86.49.06-.48-3.86-.5ZM279.8,1139l.72,1.8.45-.18-.72-1.8ZM172.93,965.15l.18,1.94.48-.05-.18-1.93ZM956.92,196l-.06.49,3.87.44,0-.48Zm15.38,2.38,3.85.53.07-.48-3.85-.53Zm-30.85-3.94,0,.49,3.86.35.05-.48Zm46.24,6.17,3.84.61.08-.48-3.84-.61Zm-61.75-7.4,0,.49,3.88.27,0-.48Zm77.09,10,3.83.7.09-.48c-1.28-.24-2.55-.47-3.83-.69ZM910.4,192.35l0,.49,3.88.19,0-.49Zm107.92,13.75,3.81.77.09-.47-3.81-.78ZM894.84,191.8v.48l3.89.11v-.49Zm138.69,17.53,3.79.85.11-.47-3.79-.86ZM879.28,191.58v.49l3.89,0v-.48Zm169.39,21.31,3.77.94.12-.47-3.77-1Zm-185-21.18v.49c1.29,0,2.59,0,3.89-.06v-.49Zm200,25.07,3.75,1,.13-.47-3.75-1ZM848.16,192.19l0,.48,3.89-.15,0-.48C850.75,192.08,849.46,192.13,848.16,192.19ZM1078.7,221q1.86.54,3.72,1.11l.14-.47-3.73-1.11ZM832.62,193l0,.48,3.88-.23,0-.49Zm260.95,32.55,3.7,1.19.15-.46-3.7-1.19ZM817.1,194.16l0,.48,3.88-.32,0-.49C819.68,193.94,818.39,194,817.1,194.16Zm291.24,36.27,3.67,1.27.16-.46L1108.5,230ZM801.61,195.66l0,.48,3.87-.41,0-.48Zm321.39,40,3.64,1.35.17-.45-3.65-1.36ZM786.15,197.5l.07.48,3.85-.49L790,197Zm351.38,43.66,3.62,1.43.18-.45-3.62-1.44ZM770.74,199.68l.08.48,3.84-.58-.07-.48ZM1152,247l3.58,1.51.19-.44-3.59-1.52ZM755.38,202.2l.09.48,3.83-.66-.08-.48Zm410.85,51,3.56,1.6.2-.45-3.57-1.6Zm-426.14-48.1.09.47,3.82-.74-.09-.48C742.63,204.57,741.36,204.81,740.09,205.07Zm440.33,54.6,3.53,1.68.21-.44-3.53-1.68Zm-455.57-51.4.11.47,3.8-.83-.1-.47Zm469.62,58.22,3.49,1.76.22-.44-3.49-1.75ZM709.7,211.81l.11.47,3.78-.92-.11-.47Zm498.66,61.81,3.44,1.83.23-.43-3.45-1.83ZM694.62,215.68l.13.47,3.76-1-.13-.47Zm527.46,65.37,3.4,1.91.24-.42-3.41-1.91ZM679.7,219.87l.14.46,3.71-1.07-.13-.47Zm555.93,68.92,3.36,2,.25-.42-3.36-2ZM664.87,224.38l.15.47,3.69-1.16-.14-.47ZM1249,296.82l3.32,2.05.25-.41-3.31-2.06ZM650.14,229.23l.15.46,3.67-1.24-.15-.46Zm612.05,75.91,3.27,2.13.26-.41-3.27-2.13ZM635.51,234.39l.17.46,3.64-1.32-.16-.46Zm639.68,79.36,3.22,2.2.27-.4-3.22-2.2ZM621,239.88l.17.46,3.62-1.41-.18-.45Zm667,82.76,3.17,2.27.28-.4c-1-.76-2.11-1.51-3.17-2.26ZM606.6,245.69l.19.45,3.58-1.48-.18-.45Zm694,86.12,3.12,2.34.29-.39-3.12-2.34Zm-708.25-80,.2.45,3.54-1.56-.19-.45ZM1313,341.26l3.07,2.4.3-.38-3.07-2.41Zm-734.77-83,.2.44,3.52-1.64-.2-.44Zm747,92.72,3,2.47.31-.37-3-2.47ZM564.22,265l.21.43,3.49-1.71-.22-.44ZM1337.12,361l3,2.53.32-.36-3-2.54Zm-786.74-88.9.22.43,3.45-1.79-.23-.43Zm798.47,99.14,2.9,2.59.33-.36-2.9-2.6ZM536.69,279.41l.24.42c1.13-.62,2.26-1.25,3.4-1.86l-.23-.43C539,278.16,537.82,278.78,536.69,279.41Zm823.67,102.26,2.84,2.67.33-.36-2.84-2.66ZM523.17,287.06l.24.42,3.36-1.94-.24-.42Zm848.46,105.35,2.78,2.72.34-.34-2.78-2.73ZM509.81,295l.25.42,3.32-2-.25-.41C512,293.66,510.92,294.34,509.81,295Zm872.85,108.38c.91.93,1.82,1.85,2.72,2.78l.35-.34c-.9-.93-1.81-1.85-2.72-2.78Zm-886-100.14.26.41,3.27-2.08-.26-.42Zm896.82,111.36c.89.94,1.77,1.89,2.66,2.84l.35-.33-2.66-2.85ZM483.62,311.78l.28.4,3.23-2.15-.27-.41ZM1404,426.05l2.59,2.9.36-.32c-.86-1-1.72-1.94-2.59-2.9ZM470.81,320.59l.28.4,3.18-2.23-.27-.4Zm943.46,117.14c.85,1,1.69,2,2.53,2.95l.37-.32-2.53-2.95Zm-956.08-108,.29.39c1-.77,2.08-1.54,3.13-2.3l-.28-.39Zm966.1,119.93c.83,1,1.65,2,2.47,3l.37-.31c-.81-1-1.64-2-2.46-3ZM445.77,339.05l.29.39,3.09-2.37-.3-.38Zm988.28,122.68q1.21,1.51,2.4,3.06l.38-.3c-.79-1-1.59-2.05-2.39-3.06Zm-1000.5-113,.3.38,3-2.44-.31-.38ZM1443.54,474c.78,1,1.56,2.07,2.33,3.11l.4-.29-2.34-3.11Zm-1022-115.45.32.37,3-2.5-.31-.37Zm1031.22,128,2.27,3.16.39-.28-2.26-3.17Zm-1043-117.8.32.36,2.92-2.56-.32-.37C411.7,367,410.73,367.9,409.76,368.76Zm1052,130.51,2.19,3.21.4-.27-2.19-3.21ZM398.19,379.18l.33.36,2.87-2.63-.33-.36Zm1072.18,133,2.12,3.25.41-.26-2.13-3.26ZM386.86,389.85l.33.35,2.81-2.69-.33-.35ZM1478.74,525.26c.69,1.1,1.37,2.2,2,3.3l.41-.25c-.68-1.11-1.36-2.21-2-3.31Zm-1103-124.49.35.35c.91-.92,1.83-1.84,2.75-2.75l-.34-.35ZM1486.83,538.53c.66,1.11,1.32,2.22,2,3.34l.42-.25-2-3.34ZM364.89,411.94l.35.33,2.69-2.81-.35-.34ZM1494.62,552c.64,1.13,1.27,2.26,1.9,3.39l.42-.24c-.63-1.13-1.26-2.26-1.9-3.39ZM354.27,423.34l.36.33c.88-1,1.75-1.92,2.63-2.87l-.36-.33C356,421.42,355.15,422.38,354.27,423.34ZM1502.12,565.56c.61,1.14,1.22,2.28,1.82,3.43l.43-.23c-.6-1.15-1.21-2.29-1.83-3.43ZM343.91,435l.36.32,2.57-2.93-.36-.32C345.62,433,344.76,434,343.91,435Zm1165.4,144.35c.59,1.15,1.17,2.31,1.75,3.46l.44-.22-1.76-3.46ZM333.8,446.83l.37.31,2.5-3-.37-.32Zm1182.4,146.4c.56,1.16,1.12,2.33,1.67,3.5l.44-.21c-.55-1.17-1.11-2.34-1.67-3.5ZM324,458.91l.38.31c.81-1,1.62-2,2.44-3l-.38-.31C325.57,456.88,324.76,457.9,324,458.91ZM1522.78,607.28c.54,1.18,1.07,2.36,1.6,3.54l.44-.2-1.59-3.54ZM314.37,471.21l.38.3,2.37-3.1-.38-.29Q315.54,469.67,314.37,471.21ZM1529.05,621.47c.51,1.19,1,2.38,1.52,3.57l.45-.19c-.5-1.19-1-2.38-1.52-3.57Zm-1224-137.75.39.29c.76-1.06,1.53-2.1,2.3-3.15l-.39-.29ZM1535,635.79l1.44,3.6.45-.18q-.7-1.8-1.44-3.6ZM296,496.43l.4.28,2.23-3.2-.4-.28ZM1540.65,650.24c.46,1.21.91,2.42,1.36,3.63l.46-.17-1.36-3.63ZM287.27,509.35l.4.26,2.16-3.24-.4-.27ZM1546,664.8c.43,1.22.86,2.44,1.28,3.66l.46-.16c-.42-1.22-.85-2.44-1.28-3.66ZM278.8,522.45l.41.26c.7-1.1,1.39-2.2,2.09-3.29l-.41-.26C280.19,520.25,279.49,521.35,278.8,522.45ZM1551,679.48l1.2,3.68.46-.15-1.2-3.69ZM270.62,535.74l.42.25c.67-1.11,1.34-2.22,2-3.33l-.42-.26Zm1285,158.51c.37,1.23.75,2.47,1.11,3.71l.47-.14c-.37-1.24-.74-2.48-1.12-3.71Zm-1292.9-145,.42.24c.65-1.13,1.3-2.26,1.94-3.39l-.42-.24ZM1560,709.12c.35,1.25.7,2.5,1,3.75l.47-.13c-.34-1.25-.69-2.5-1-3.75ZM255.16,562.87l.43.23c.61-1.15,1.24-2.29,1.86-3.43l-.42-.23C256.4,560.58,255.78,561.72,255.16,562.87ZM1564,724.14l1,3.77.47-.12c-.32-1.26-.63-2.51-1-3.77ZM247.88,576.68l.43.23c.59-1.16,1.19-2.32,1.79-3.47l-.43-.23ZM1567.71,739.25c.29,1.26.59,2.52.87,3.79l.48-.11c-.29-1.26-.58-2.53-.88-3.79ZM240.9,590.66l.44.22,1.71-3.51-.43-.22C242,588.32,241.47,589.49,240.9,590.66ZM1571.07,754.44c.27,1.26.53,2.53.79,3.8l.48-.09c-.26-1.28-.53-2.55-.79-3.81ZM234.24,604.8l.44.2c.54-1.18,1.09-2.37,1.64-3.55l-.44-.2C235.33,602.43,234.78,603.61,234.24,604.8ZM1574.1,769.69c.23,1.27.47,2.55.7,3.83l.48-.09c-.23-1.28-.47-2.55-.71-3.83ZM227.9,619.07l.44.19,1.55-3.57-.44-.19C228.93,616.69,228.41,617.88,227.9,619.07ZM1576.78,785c.21,1.28.42,2.56.62,3.84l.48-.08c-.2-1.28-.41-2.56-.62-3.84ZM221.89,633.43l.45.18,1.47-3.6-.45-.19Zm1357.24,167c.18,1.28.36,2.56.53,3.85l.48-.07c-.17-1.28-.35-2.57-.53-3.85ZM216.21,647.91l.45.18c.46-1.22.93-2.43,1.39-3.64l-.45-.17C217.13,645.49,216.67,646.7,216.21,647.91Zm1364.92,167.9c.16,1.29.31,2.57.45,3.86l.48,0c-.14-1.29-.29-2.58-.44-3.87ZM210.84,662.53l.46.16,1.31-3.66-.45-.17C211.71,660.08,211.28,661.3,210.84,662.53Zm1372,168.74.36,3.87.48,0c-.11-1.29-.24-2.58-.36-3.87Zm-1377-154,.46.15q.6-1.85,1.23-3.69l-.47-.15C206.62,674.79,206.21,676,205.81,677.25ZM1584.12,846.77l.27,3.88.49,0c-.09-1.29-.18-2.58-.28-3.88Zm-1383-154.68.47.14c.38-1.24.76-2.48,1.15-3.72l-.47-.14C201.86,689.6,201.47,690.84,201.09,692.09Zm1384,170.2c.06,1.3.13,2.59.19,3.89l.48,0c-.06-1.29-.12-2.59-.19-3.88ZM196.71,707l.47.13c.35-1.25.7-2.49,1.06-3.74l-.47-.13C197.42,704.52,197.06,705.77,196.71,707Zm1389,170.81c0,1.3.08,2.59.11,3.89h.48c0-1.3-.06-2.6-.1-3.89ZM192.66,722.05l.47.12c.32-1.26.65-2.51,1-3.77l-.47-.12C193.31,719.53,193,720.79,192.66,722.05ZM1586,893.38c0,1.3,0,2.59,0,3.89h.49c0-1.3,0-2.6,0-3.89ZM188.93,737.16l.48.11q.43-1.89.9-3.78l-.48-.12ZM1586,908.94c0,1.29,0,2.59-.07,3.88h.49l.06-3.89ZM185.54,752.35l.48.1.81-3.8-.47-.11C186.08,749.81,185.81,751.08,185.54,752.35ZM1585.59,924.48l-.15,3.89.48,0c.06-1.3.11-2.59.15-3.89ZM182.49,767.61l.47.09c.24-1.28.49-2.55.74-3.82l-.48-.09C183,765.06,182.73,766.33,182.49,767.61ZM1584.86,940c-.07,1.29-.15,2.59-.23,3.88l.48,0,.24-3.88ZM179.76,782.93l.48.08c.21-1.28.43-2.56.65-3.83l-.48-.09C180.19,780.37,180,781.65,179.76,782.93Zm1404,172.61c-.1,1.28-.2,2.57-.31,3.86l.48,0c.11-1.29.22-2.58.32-3.86ZM177.37,798.31l.48.07.57-3.85-.48-.07ZM1582.4,971c-.13,1.29-.27,2.57-.41,3.86l.49,0c.13-1.29.27-2.57.4-3.86ZM175.31,813.74l.49,0c.15-1.28.31-2.57.48-3.85l-.48-.07C175.63,811.16,175.47,812.45,175.31,813.74ZM1580.17,990.3l.49.06.48-3.86-.48-.06C1580.5,987.73,1580.34,989,1580.17,990.3ZM174,825.33c-.14,1.29-.27,2.58-.4,3.87l.48,0c.13-1.29.26-2.58.4-3.86ZM1578,1005.7l.48.08c.2-1.29.39-2.57.57-3.85l-.48-.07Q1578.32,1003.78,1578,1005.7ZM172.51,840.82c-.11,1.3-.21,2.59-.31,3.88l.48,0c.1-1.29.21-2.58.32-3.88Zm1403,180.24.48.08c.22-1.28.44-2.56.65-3.84l-.48-.08C1576,1018.5,1575.76,1019.78,1575.54,1021.06ZM171.37,856.34c-.08,1.3-.15,2.59-.23,3.88l.49,0c.07-1.29.15-2.58.23-3.88Zm1401.35,180,.48.1c.25-1.28.49-2.55.74-3.83l-.48-.09C1573.22,1033.81,1573,1035.08,1572.72,1036.35ZM170.57,871.88c0,1.3-.1,2.59-.14,3.89l.48,0,.15-3.89Zm1399,179.7.48.11c.27-1.27.55-2.54.82-3.81l-.48-.1C1570.12,1049.05,1569.85,1050.32,1569.57,1051.58ZM170.11,887.44l-.06,3.89h.49c0-1.29,0-2.59.06-3.88Zm1396,179.3.47.12c.31-1.26.61-2.53.91-3.79l-.48-.11ZM170,903c0,1.29,0,2.59,0,3.89h.49c0-1.29,0-2.59,0-3.88Zm1392.29,178.82.47.12c.33-1.25.66-2.5,1-3.76l-.47-.12C1562.94,1079.31,1562.61,1080.57,1562.28,1081.82ZM170.21,918.56c0,1.29.07,2.59.11,3.89l.48,0c0-1.29-.07-2.59-.1-3.88Zm1387.92,178.25.47.13c.36-1.24.71-2.49,1.07-3.74l-.47-.13C1558.85,1094.32,1558.49,1095.57,1558.13,1096.81ZM170.77,934.11c.07,1.29.13,2.59.2,3.88l.48,0c-.06-1.3-.13-2.59-.19-3.88Zm1382.89,177.6.46.14c.39-1.24.77-2.48,1.15-3.72l-.46-.14C1554.43,1109.23,1554,1110.47,1553.66,1111.71Zm-1382-162.07c.09,1.3.18,2.59.28,3.88l.48,0c-.09-1.29-.19-2.59-.28-3.88ZM1548.86,1126.5l.46.15q.62-1.83,1.23-3.69l-.46-.15Zm-5.13,14.68.46.17,1.31-3.66-.46-.17C1544.61,1138.74,1544.17,1140,1543.73,1141.18Zm-5.45,14.57.45.18c.47-1.21.93-2.42,1.39-3.64l-.45-.17Zm-5.78,14.44.45.19c.5-1.2,1-2.4,1.48-3.6l-.45-.19C1533.49,1167.8,1533,1169,1532.5,1170.19Zm-6.09,14.31.45.2c.52-1.19,1-2.38,1.55-3.57l-.44-.19Zm-6.43,14.24.44.2c.55-1.18,1.1-2.36,1.64-3.55l-.44-.2C1521.08,1196.38,1520.53,1197.56,1520,1198.74Zm-6.75,14.08.44.21c.57-1.16,1.15-2.33,1.72-3.51l-.44-.21C1514.38,1210.48,1513.81,1211.65,1513.23,1212.82Zm-7,13.92.43.23c.6-1.16,1.2-2.31,1.79-3.47l-.43-.22Zm-7.37,13.76.43.24c.63-1.14,1.25-2.29,1.87-3.43l-.43-.23C1500.06,1238.22,1499.44,1239.36,1498.81,1240.5Zm-7.66,13.6.42.24,2-3.39-.42-.24Zm-8,13.41.41.25c.68-1.11,1.35-2.22,2-3.34l-.41-.25C1484.54,1265.29,1483.87,1266.4,1483.19,1267.51Zm-8.26,13.23.41.26c.71-1.09,1.4-2.19,2.1-3.29l-.41-.26Zm-8.54,13,.4.27,2.17-3.24-.41-.27C1467.84,1291.62,1467.11,1292.7,1466.39,1293.78ZM213.77,1145.24c.45,1.21.9,2.43,1.36,3.64l.45-.17c-.45-1.21-.91-2.42-1.36-3.64Zm1243.79,161.39.4.28c.75-1.06,1.49-2.13,2.24-3.2l-.4-.27ZM219.33,1159.77l1.44,3.61.45-.18-1.44-3.61Zm1229.13,159.51.39.29,2.3-3.15-.39-.29ZM225.21,1174.17c.5,1.19,1,2.38,1.51,3.57l.45-.19-1.52-3.57Zm1213.86,157.55.39.29,2.37-3.09-.38-.29ZM231.4,1188.42c.52,1.18,1.06,2.37,1.59,3.54l.44-.2-1.59-3.54Zm1198,155.53.38.3c.82-1,1.63-2,2.44-3l-.38-.3C1431.05,1341.92,1430.24,1342.94,1429.42,1344ZM237.9,1202.54c.55,1.17,1.11,2.34,1.67,3.51l.44-.21c-.56-1.17-1.12-2.34-1.67-3.51ZM1419.51,1356l.37.31c.84-1,1.67-2,2.5-3l-.37-.32ZM244.71,1216.51c.58,1.16,1.16,2.32,1.75,3.47l.43-.22c-.59-1.15-1.17-2.31-1.75-3.46Zm1164.62,151.23.37.33,2.56-2.93-.36-.32C1411.05,1365.8,1410.19,1366.77,1409.33,1367.74ZM251.82,1230.34l1.83,3.43.43-.23c-.62-1.14-1.22-2.29-1.83-3.43Zm1147.08,149,.36.33c.88-1,1.75-1.91,2.63-2.87l-.36-.32ZM259.24,1244c.63,1.13,1.26,2.26,1.9,3.39l.42-.24-1.9-3.38Zm1129,146.63.35.34,2.7-2.81-.36-.34C1390,1388.76,1389.12,1389.7,1388.22,1390.63ZM267,1257.5l2,3.35.42-.25-2-3.34ZM1377.3,1401.72l.34.34,2.75-2.75-.34-.34C1379.14,1399.89,1378.22,1400.8,1377.3,1401.72ZM275,1270.83c.68,1.11,1.37,2.21,2.05,3.31l.41-.26-2-3.3Zm1091.18,141.73.33.35,2.81-2.69-.33-.35ZM283.26,1284l2.13,3.26.4-.27-2.12-3.25Zm1071.48,139.17.33.36,2.87-2.63-.33-.36ZM291.85,1297l2.19,3.22.4-.28-2.19-3.21ZM1343.12,1433.5l.32.37,2.93-2.57-.32-.36ZM300.72,1309.74l2.26,3.17.4-.28-2.26-3.17Zm1030.56,133.84.31.38,3-2.5-.31-.37ZM309.87,1322.33l2.33,3.12.39-.3c-.78-1-1.56-2.07-2.33-3.11Zm1009.35,131.08.3.38,3-2.44-.31-.38C1321.25,1451.79,1320.23,1452.6,1319.22,1453.41ZM319.29,1334.72l2.4,3.06.38-.3-2.39-3.06ZM1307,1463l.3.39,3.09-2.37-.3-.38ZM329,1346.9c.82,1,1.64,2,2.47,3l.37-.31-2.46-3Zm965.5,125.34.29.4,3.14-2.3-.29-.39C1296.58,1470.72,1295.53,1471.48,1294.48,1472.24ZM338.94,1358.86c.84,1,1.68,2,2.53,3l.36-.32-2.52-3Zm942.87,122.39.28.4,3.19-2.23-.28-.4ZM349.15,1370.61c.86,1,1.73,1.94,2.6,2.9l.36-.32-2.59-2.9ZM1269,1490l.26.4,3.24-2.16-.27-.4ZM359.62,1382.13c.89.95,1.77,1.9,2.66,2.84l.35-.33L360,1381.8Zm896.29,116.29.26.41,3.28-2.09-.26-.41Zm-885.57-105,2.72,2.79.35-.34-2.72-2.79Zm872.35,113.15.25.42c1.11-.67,2.22-1.34,3.32-2l-.25-.41ZM381.31,1404.48l2.78,2.72.34-.35-2.78-2.72Zm848,110,.24.42,3.37-1.93-.25-.43Zm-836.77-99.14,2.84,2.66.33-.35-2.84-2.66ZM1215.73,1522l.23.42c1.14-.61,2.27-1.24,3.41-1.86l-.24-.43ZM404,1425.86l2.9,2.6.32-.36-2.89-2.6ZM1202,1529.26l.22.43,3.45-1.79-.23-.43Zm-786.37-93.09,2.95,2.54.32-.37-3-2.54Zm772.49,100,.22.44,3.48-1.71-.22-.44Zm-760.59-90,3,2.47.3-.38-3-2.47Zm746.57,96.65.21.44,3.51-1.64-.2-.44ZM439.65,1456l3.07,2.41.3-.38c-1-.8-2-1.61-3.06-2.41Zm720.3,93.2.2.45,3.55-1.56-.2-.45C1162.32,1548.19,1161.14,1548.71,1160,1549.22Zm-708-83.67,3.11,2.34.29-.39-3.11-2.34Zm693.67,89.7.18.45,3.59-1.48-.19-.45ZM464.53,1474.8l3.16,2.27.29-.39-3.17-2.27ZM1131.24,1561l.18.45,3.61-1.4-.17-.45Zm-654-77.19,3.22,2.2.27-.4-3.21-2.2Zm639.44,82.58.16.46,3.65-1.32-.17-.46Zm-626.5-73.89,3.27,2.13.26-.41c-1.09-.7-2.18-1.41-3.26-2.13Zm611.85,79,.15.46,3.68-1.24-.16-.46Zm-598.71-70.55,3.31,2,.25-.41-3.31-2Zm584,75.3.14.46,3.7-1.15-.15-.47ZM516.66,1509l3.36,2,.24-.42-3.35-2Zm555.8,71.61.13.47,3.73-1.08-.14-.47C1074.94,1579.89,1073.7,1580.24,1072.46,1580.6Zm-542.3-63.79c1.13.64,2.26,1.28,3.4,1.91l.23-.42-3.4-1.91Zm527.34,67.88.13.47,3.76-1-.13-.47Zm-513.68-60.36,3.45,1.84.22-.43-3.44-1.84Zm498.6,64.14.11.47,3.78-.91-.11-.47Zm-484.76-56.92,3.48,1.76.22-.44-3.48-1.75Zm469.59,60.36.1.48,3.8-.83-.1-.48Zm-455.6-53.45,3.52,1.68.21-.44-3.52-1.68ZM1012,1595l.09.48,3.82-.74-.1-.48Zm-426.21-50,3.56,1.6.19-.45-3.55-1.6Zm410.9,52.72.08.48,3.84-.66-.09-.48Zm-396.61-46.44,3.59,1.52.19-.45-3.59-1.52Zm381.25,48.87.07.48,3.85-.58-.08-.48Zm-366.82-42.9,3.63,1.44.18-.45-3.63-1.45Zm351.41,45,.06.48,3.86-.49-.07-.48ZM629.08,1563l3.66,1.36.17-.45-3.66-1.37ZM950.47,1604l0,.49,3.87-.41,0-.48Zm-306.7-35.76,3.69,1.28.16-.46c-1.24-.42-2.46-.85-3.69-1.28ZM935,1605.43l0,.49,3.88-.32,0-.48Zm-276.41-32.17,3.72,1.2.15-.46-3.72-1.2Zm260.89,33.23,0,.49,3.89-.23,0-.49Zm-246-28.57,3.73,1.11.14-.47-3.73-1.11Zm230.49,29.29v.48l3.89-.14,0-.49Zm-215.53-25,3.75,1,.13-.46-3.75-1Zm200,25.34v.49l3.89-.06v-.49C891,1607.55,889.68,1607.57,888.38,1607.58Zm-184.94-21.36,3.78,1,.12-.47-3.78-1Zm169.39,21.39v.49l3.89,0v-.48C875.42,1607.63,874.12,1607.63,872.83,1607.61Zm-154.26-17.73,3.8.86.1-.47-3.79-.86Zm138.71,17.43,0,.48,3.89.11v-.49Zm-123.5-14.1,3.81.77.09-.47-3.81-.78Zm108,13.45,0,.48,3.89.2,0-.49Zm-92.69-10.46,3.83.69.09-.48c-1.28-.22-2.56-.46-3.83-.69Zm77.17,9.47,0,.48,3.88.28,0-.48Zm-61.83-6.81,3.84.61.07-.48-3.84-.61Zm46.34,5.49-.05.48,3.86.36.05-.48Zm-31-3.17,3.85.53.07-.48-3.86-.53Zm15.49,1.51-.06.48,3.87.45,0-.48ZM209.14,1132.37l.65,1.83.45-.16-.64-1.83ZM79.71,1076.68l.42,1.89.47-.1-.42-1.9ZM967.29,87l0,.49,3.86.43.06-.48Zm15.39,2.33,3.86.5.06-.48-3.86-.51Zm-30.85-3.88,0,.49,3.86.36,0-.49Zm46.25,6,3.85.58.07-.48L998.15,91Zm-61.72-7.26,0,.49,3.88.29,0-.49Zm77.09,9.68,3.83.65.08-.48-3.83-.65ZM920.83,83.26l0,.49,3.88.21,0-.48Zm107.93,13.36c1.28.23,2.55.47,3.82.72l.09-.48-3.82-.72Zm-123.48-14v.49l3.88.14,0-.49Zm138.74,17,3.81.79.1-.47-3.81-.8ZM889.73,82.2v.48l3.89.07v-.48Zm169.49,20.69c1.27.29,2.53.57,3.79.87l.11-.48-3.79-.86ZM874.17,82.11v.48h3.89V82.1Zm200.19,24.35,3.77.94.12-.48-3.78-.93ZM858.61,82.31v.49l3.89-.08v-.49Zm230.81,28,3.76,1,.13-.47-3.76-1ZM843.06,82.82l0,.48,3.88-.15,0-.49Zm261.35,31.64c1.25.35,2.49.71,3.74,1.08l.13-.47-3.73-1.08ZM827.52,83.62l0,.48,3.88-.23,0-.48Zm291.8,35.26L1123,120l.15-.47-3.72-1.15ZM812,84.71l0,.49,3.88-.31,0-.48Zm322.15,38.89,3.69,1.22.16-.46-3.7-1.23ZM796.5,86.1l0,.49,3.87-.38,0-.48Zm352.37,42.49,3.67,1.29.16-.46-3.67-1.29ZM781,87.79l.05.49Q783,88,785,87.83l-.06-.49Zm382.47,46.07,3.64,1.37.17-.46-3.64-1.36ZM765.59,89.78l.07.48,3.85-.52-.06-.49ZM1178,139.42l3.62,1.43.18-.45L1178.2,139ZM750.2,92.06l.08.48,3.84-.6-.07-.48Zm442.24,53.19,3.59,1.5.18-.45-3.58-1.5ZM734.86,94.64l.08.48,3.83-.68-.08-.47Zm471.88,56.72,3.58,1.58.19-.45-3.57-1.58ZM719.56,97.51l.1.47,3.81-.74-.09-.48C722.11,97,720.83,97.25,719.56,97.51ZM1221,157.77l3.55,1.64.2-.44-3.54-1.64Zm-516.65-57.1.1.47c1.26-.27,2.53-.55,3.8-.81l-.1-.48Zm530.77,63.78,3.51,1.71.21-.44-3.51-1.71ZM689.15,104.12l.11.48,3.79-.89-.11-.48Zm559.93,67.28c1.16.59,2.32,1.18,3.47,1.78l.22-.44L1249.3,171Zm-575-63.53.12.47c1.26-.33,2.51-.65,3.77-1l-.12-.48Zm588.87,70.74,3.44,1.85.23-.43-3.44-1.85ZM659,111.9l.13.47,3.75-1-.13-.47Zm617.59,74.19c1.14.63,2.27,1.27,3.4,1.91l.24-.42c-1.13-.64-2.26-1.28-3.4-1.91ZM644.13,116.2l.14.47,3.71-1.1-.13-.47Zm646,77.63,3.36,2,.25-.41c-1.12-.67-2.24-1.32-3.37-2Zm-660.83-73,.15.46,3.69-1.17-.15-.47Zm674.22,81,3.32,2,.26-.41-3.33-2ZM614.61,125.66l.15.46,3.67-1.25-.15-.46Zm702.17,84.41,3.29,2.1.26-.4c-1.09-.71-2.19-1.41-3.29-2.11ZM600,130.81l.17.45,3.64-1.31-.16-.46Zm729.87,87.76,3.25,2.17.27-.41-3.25-2.16Zm-744.4-82.34.17.46,3.62-1.39-.17-.45Zm757.31,91.09,3.2,2.22.27-.4-3.2-2.22ZM571,141.94l.19.45,3.59-1.45-.18-.46Zm784.47,94.37,3.15,2.28.29-.39-3.16-2.29ZM556.7,147.92l.19.44,3.57-1.52-.19-.44ZM1368,245.54l3.11,2.34.3-.39-3.12-2.34ZM542.5,154.17l.2.44,3.53-1.59-.19-.44C544.85,153.11,543.68,153.63,542.5,154.17ZM1380.41,255l3.07,2.41.3-.39-3.07-2.4Zm-852-94.31.21.44,3.5-1.66-.2-.44Zm864.19,104,3,2.46.31-.37-3-2.47ZM514.44,167.48l.22.43,3.48-1.72-.22-.43ZM1404.6,274.63l3,2.52.32-.37-3-2.52Zm-904-100.1.22.43,3.45-1.78-.23-.44Zm915.8,110.25,2.92,2.57.32-.36-2.92-2.58ZM486.91,181.85l.23.42,3.41-1.85-.23-.43ZM1428,295.15l2.87,2.63.33-.36-2.87-2.63ZM473.34,189.42l.24.42,3.38-1.91-.24-.43Zm966.09,116.32,2.82,2.68.34-.35-2.83-2.68ZM459.92,197.25l.25.42,3.34-2-.25-.42Zm990.71,119.3,2.77,2.73.34-.35L1451,316.2Zm-1004-111.21.26.41,3.3-2-.26-.41Zm1015,122.22c.91.92,1.81,1.85,2.71,2.78l.35-.34c-.9-.93-1.81-1.86-2.72-2.78ZM433.53,213.68l.27.41c1.08-.71,2.17-1.41,3.26-2.11l-.26-.41ZM1472.41,338.77c.89,1,1.78,1.89,2.66,2.84l.36-.33-2.67-2.84ZM420.57,222.26l.27.41,3.23-2.17-.27-.41ZM1483,350.19l2.61,2.89.36-.33-2.61-2.89ZM407.77,231.09l.28.4,3.19-2.23-.28-.4ZM1493.33,361.8l2.55,2.94.37-.32-2.56-2.94ZM395.14,240.17l.29.39c1-.77,2.09-1.53,3.14-2.29l-.29-.4ZM1503.45,373.61c.84,1,1.67,2,2.5,3l.37-.31c-.83-1-1.66-2-2.5-3ZM382.68,249.48l.3.38,3.09-2.35-.29-.38ZM1513.35,385.6l2.44,3,.38-.3c-.81-1-1.63-2-2.44-3ZM370.4,259l.3.38,3.06-2.4-.3-.39ZM1523,397.78c.79,1,1.59,2,2.38,3.07l.38-.3c-.79-1-1.58-2.05-2.38-3.07ZM358.3,268.8l.31.37,3-2.46-.31-.38ZM1532.45,410.13l2.33,3.12.39-.29-2.33-3.12ZM346.38,278.8l.32.37,3-2.52-.32-.37ZM1541.65,422.66c.76,1,1.51,2.11,2.26,3.16l.4-.28c-.75-1.06-1.51-2.11-2.26-3.16ZM334.66,289l.32.36,2.91-2.58-.32-.36ZM1550.61,435.36l2.2,3.2.4-.27-2.2-3.21ZM323.12,299.49l.33.36,2.87-2.64-.33-.35ZM1559.33,448.22c.71,1.08,1.43,2.16,2.14,3.25l.4-.27c-.71-1.08-1.42-2.16-2.14-3.24ZM311.79,310.16l.34.35,2.81-2.69-.33-.35Zm1256,151.09,2.07,3.28.42-.26-2.08-3.28ZM300.66,321.05l.34.34,2.76-2.74-.34-.35ZM1576,474.43l2,3.32.42-.25c-.67-1.11-1.34-2.22-2-3.32ZM289.73,332.14l.35.34,2.71-2.79-.34-.34ZM1584,487.76c.66,1.12,1.31,2.23,2,3.35l.43-.24c-.65-1.12-1.3-2.24-2-3.36ZM279,343.44l.36.34,2.65-2.85-.35-.33C280.79,341.55,279.9,342.49,279,343.44ZM1591.7,501.24c.63,1.13,1.26,2.26,1.88,3.39l.43-.24-1.89-3.39ZM268.52,355l.36.33c.87-1,1.73-1.94,2.61-2.9l-.37-.32ZM1599.15,514.86c.61,1.14,1.22,2.28,1.82,3.42l.43-.23c-.6-1.14-1.21-2.28-1.82-3.42ZM258.24,366.66l.37.31q1.26-1.47,2.55-2.94l-.37-.32Zm1348.11,162c.58,1.15,1.17,2.3,1.75,3.46l.44-.22-1.76-3.46Zm-1358.17-150,.38.31c.82-1,1.65-2,2.49-3l-.38-.32ZM1613.28,542.5c.56,1.16,1.13,2.32,1.69,3.49l.44-.21-1.7-3.5ZM238.35,390.65l.38.3c.81-1,1.62-2,2.44-3l-.38-.3C240,388.62,239.16,389.63,238.35,390.65ZM1619.94,556.51c.55,1.17,1.09,2.34,1.63,3.52l.44-.2c-.54-1.18-1.08-2.35-1.63-3.53ZM228.75,402.93l.39.29,2.37-3.08-.38-.3ZM1626.34,570.64l1.56,3.55.44-.19c-.52-1.19-1-2.37-1.56-3.55Zm-1407-155.25.4.29,2.31-3.13-.39-.29Zm1413.09,169.5,1.48,3.58.45-.19c-.49-1.19-1-2.38-1.49-3.58ZM210.26,428l.39.28,2.26-3.17-.39-.29ZM1638.32,599.25c.47,1.2,1,2.4,1.42,3.61l.45-.18c-.47-1.2-.94-2.41-1.42-3.61ZM201.37,440.85l.4.27c.73-1.07,1.46-2.15,2.2-3.22l-.4-.27C202.83,438.7,202.1,439.77,201.37,440.85ZM1643.89,613.72c.46,1.21.91,2.42,1.36,3.63l.45-.17-1.35-3.63ZM192.73,453.83l.41.27,2.13-3.26-.4-.27ZM1649.2,628.28c.42,1.22.85,2.44,1.28,3.66l.45-.16c-.42-1.22-.85-2.44-1.28-3.66ZM184.34,467l.41.25,2.07-3.3-.41-.26Zm1469.87,176c.41,1.23.82,2.45,1.22,3.68l.46-.15c-.4-1.23-.81-2.45-1.21-3.68ZM176.2,480.3l.41.25,2-3.34-.41-.26C177.54,478.07,176.86,479.18,176.2,480.3ZM1659,657.69l1.14,3.7.46-.14-1.14-3.7ZM168.31,493.77l.42.24,2-3.38-.42-.24Zm1495.1,178.76c.36,1.24.72,2.48,1.07,3.72l.47-.14c-.36-1.24-.71-2.48-1.07-3.72ZM160.68,507.39l.43.23c.62-1.14,1.25-2.28,1.88-3.42l-.42-.23Zm1506.9,180.05c.34,1.25.67,2.5,1,3.76l.47-.13c-.33-1.25-.66-2.51-1-3.76ZM153.32,521.16l.43.22c.6-1.15,1.21-2.3,1.82-3.45l-.43-.23C154.53,518.85,153.92,520,153.32,521.16ZM1671.48,702.49q.48,1.89.93,3.78l.48-.12-.93-3.77ZM146.22,535.07l.43.22,1.75-3.49-.43-.22C147.38,532.74,146.8,533.9,146.22,535.07ZM1675.1,717.62c.29,1.26.57,2.52.85,3.79l.48-.11c-.28-1.26-.57-2.53-.86-3.79ZM139.38,549.12l.44.21c.56-1.18,1.12-2.36,1.69-3.53l-.44-.21C140.51,546.77,139.94,547.94,139.38,549.12Zm1539,183.69c.26,1.27.53,2.54.78,3.81l.48-.1c-.26-1.27-.52-2.54-.79-3.81ZM132.82,563.3l.45.2c.53-1.19,1.07-2.37,1.61-3.56l-.44-.2ZM1681.45,748.06c.24,1.28.48,2.55.71,3.83l.48-.09c-.24-1.28-.47-2.55-.71-3.83ZM126.56,577.54l.45.19c.51-1.19,1-2.38,1.54-3.57l-.45-.19ZM1684.19,763.37l.63,3.84.48-.08-.63-3.84ZM120.57,591.91l.45.18,1.47-3.6-.45-.19ZM1686.63,778.73c.19,1.28.38,2.56.56,3.85l.48-.07c-.18-1.29-.37-2.57-.56-3.85ZM114.86,606.38l.45.17,1.4-3.62-.45-.18C115.79,604,115.32,605.17,114.86,606.38ZM1688.78,794.13c.16,1.29.33,2.57.49,3.86l.48-.06c-.16-1.29-.32-2.57-.49-3.86ZM109.43,621l.45.17,1.33-3.66-.45-.16C110.31,618.52,109.87,619.74,109.43,621Zm1581.2,188.61.42,3.87.48-.05-.42-3.87ZM104.27,635.64l.46.16,1.26-3.68-.45-.16C105.11,633.19,104.69,634.42,104.27,635.64ZM1692.18,825.05c.12,1.29.24,2.58.35,3.87l.48,0c-.11-1.29-.22-2.59-.34-3.88ZM99.4,650.42l.46.15,1.2-3.7-.47-.15C100.19,648,99.8,649.19,99.4,650.42Zm1594,190.13c.1,1.29.19,2.58.27,3.88l.49,0-.27-3.88ZM94.81,665.29l.47.14c.37-1.24.74-2.48,1.12-3.72l-.47-.14C95.56,662.81,95.19,664.05,94.81,665.29Zm1599.6,190.78c.07,1.29.13,2.59.19,3.88l.49,0c-.06-1.3-.13-2.59-.2-3.89ZM90.51,680.25l.47.12,1-3.74-.47-.13ZM1695.07,871.6c0,1.3.09,2.59.12,3.89h.49l-.12-3.89ZM86.49,695.28l.48.12c.32-1.26.64-2.51,1-3.76l-.47-.13Zm1609,191.87c0,1.3,0,2.59,0,3.89h.49c0-1.29,0-2.59,0-3.89ZM82.76,710.38l.48.12.9-3.79-.47-.11C83.37,707.86,83.06,709.12,82.76,710.38ZM1695.52,902.7l0,3.89h.49c0-1.29,0-2.59,0-3.89ZM79.32,725.56l.48.1c.27-1.27.55-2.53.83-3.8l-.48-.1C79.87,723,79.6,724.29,79.32,725.56Zm1616,192.69c0,1.3-.07,2.59-.1,3.89h.48c0-1.3.07-2.59.1-3.89ZM76.17,740.8l.47.09c.25-1.27.51-2.54.77-3.81l-.48-.1C76.67,738.25,76.42,739.52,76.17,740.8Zm1618.61,193c0,1.3-.11,2.59-.17,3.89l.48,0,.18-3.89ZM73.3,756.09l.48.08.69-3.82-.48-.09ZM1694,949.32l-.24,3.88.48,0c.09-1.3.17-2.59.25-3.89ZM70.72,771.43l.48.08c.21-1.28.41-2.56.62-3.84l-.48-.08C71.13,768.87,70.93,770.15,70.72,771.43ZM1692.87,964.84c-.1,1.28-.21,2.57-.32,3.86l.49,0c.11-1.29.21-2.58.32-3.86ZM68.43,786.82l.49.07c.17-1.28.36-2.57.54-3.85L69,783C68.79,784.26,68.61,785.54,68.43,786.82ZM1691.48,980.28c-.12,1.29-.26,2.58-.39,3.87l.48.05c.14-1.29.27-2.58.4-3.87Zm-1625-178,.49,0c.15-1.28.31-2.57.47-3.86l-.48-.06ZM1689.8,995.74l-.15,1.29c-.1.86-.21,1.71-.31,2.57l.48.06c.1-.86.21-1.71.31-2.57l.16-1.3ZM65.12,813.85c-.14,1.29-.27,2.58-.4,3.87l.48,0c.13-1.29.27-2.58.4-3.87ZM1687.3,1015l.48.07.54-3.85-.49-.07C1687.66,1012.45,1687.48,1013.73,1687.3,1015ZM63.63,829.33q-.18,1.93-.33,3.87l.48,0,.33-3.87ZM1685,1030.39l.48.08c.2-1.28.41-2.56.61-3.85l-.48-.07C1685.38,1027.83,1685.17,1029.11,1685,1030.39ZM62.42,844.83c-.09,1.29-.17,2.58-.25,3.87l.48,0c.08-1.3.17-2.59.26-3.88Zm1619.93,200.89.48.08c.23-1.27.46-2.55.68-3.83l-.48-.08C1682.81,1043.17,1682.58,1044.44,1682.35,1045.72ZM61.51,860.35c-.07,1.29-.13,2.59-.18,3.88l.48,0,.18-3.88ZM1679.44,1061l.48.09c.25-1.27.51-2.54.75-3.82l-.47-.09C1680,1058.45,1679.7,1059.73,1679.44,1061ZM60.89,875.89c0,1.29-.08,2.59-.11,3.88h.48c0-1.29.07-2.58.11-3.88Zm1615.36,200.33.48.1c.27-1.27.55-2.53.82-3.8l-.47-.1C1676.8,1073.68,1676.53,1075,1676.25,1076.22ZM60.56,891.43c0,1.3,0,2.59,0,3.89H61c0-1.29,0-2.59,0-3.88Zm1612.21,199.94.47.12.9-3.79-.47-.11ZM60.53,907c0,1.3,0,2.59,0,3.89h.48c0-1.29,0-2.59,0-3.88ZM1669,1106.46l.47.12c.33-1.25.65-2.51,1-3.77l-.47-.12C1669.65,1104,1669.33,1105.21,1669,1106.46ZM60.79,922.53c0,1.3.07,2.59.11,3.88h.49c0-1.29-.08-2.59-.11-3.88Zm1604.15,198.94.47.13c.35-1.24.7-2.49,1-3.74l-.46-.13ZM61.35,938.07c.06,1.3.12,2.59.19,3.88l.48,0-.18-3.88ZM1660.6,1136.41l.47.14,1.11-3.73-.46-.14C1661.35,1133.92,1661,1135.17,1660.6,1136.41ZM62.21,953.6c.08,1.29.17,2.58.26,3.88l.48,0c-.09-1.29-.17-2.58-.26-3.87ZM1656,1151.25l.46.15c.4-1.23.79-2.47,1.18-3.7l-.46-.15C1656.77,1148.79,1656.37,1150,1656,1151.25ZM63.36,969.11c.11,1.29.22,2.58.34,3.87l.48,0c-.11-1.29-.23-2.58-.34-3.87ZM1651.07,1166l.46.16c.42-1.23.84-2.46,1.25-3.69l-.46-.15C1651.91,1163.56,1651.49,1164.78,1651.07,1166ZM64.81,984.59c.13,1.29.27,2.58.41,3.87l.48-.05c-.14-1.29-.27-2.58-.41-3.87Zm1581.07,196.08.46.17,1.32-3.66-.46-.17ZM66.55,1000.05c.16,1.28.32,2.57.49,3.85l.48-.06c-.16-1.28-.33-2.56-.48-3.85Zm1573.86,195.18.45.17c.47-1.21.94-2.42,1.4-3.63l-.46-.17C1641.34,1192.81,1640.88,1194,1640.41,1195.23ZM68.6,1015.47c.18,1.28.37,2.56.55,3.84l.48-.07c-.18-1.28-.37-2.56-.55-3.84Zm1566.06,194.21.45.18,1.47-3.6-.46-.19C1635.64,1207.28,1635.15,1208.48,1634.66,1209.68ZM70.93,1030.85l.63,3.83.48-.08-.63-3.83ZM1628.64,1224l.44.2c.52-1.19,1-2.39,1.54-3.58l-.45-.19ZM73.56,1046.18c.23,1.27.47,2.55.71,3.82l.48-.09c-.24-1.27-.48-2.55-.71-3.82Zm1548.77,192.07.44.2c.54-1.19,1.08-2.37,1.61-3.56l-.44-.2C1623.41,1235.88,1622.87,1237.06,1622.33,1238.25ZM76.49,1061.45c.25,1.27.51,2.54.77,3.81l.48-.1-.78-3.8Zm1539.24,191,.44.21,1.68-3.53-.44-.2C1616.85,1250.05,1616.3,1251.23,1615.73,1252.4Zm-6.86,14,.43.22c.58-1.16,1.17-2.33,1.74-3.49l-.43-.22Zm-7.14,13.89.43.22c.61-1.15,1.21-2.3,1.81-3.46l-.43-.22C1602.94,1278,1602.34,1279.16,1601.73,1280.31Zm-7.4,13.74.43.23,1.88-3.42-.43-.24C1595.59,1291.77,1595,1292.91,1594.33,1294.05Zm-7.66,13.59.43.24,1.94-3.39-.43-.24C1588,1305.38,1587.32,1306.51,1586.67,1307.64Zm-1490.33-168c.38,1.24.76,2.48,1.15,3.72l.46-.15c-.39-1.23-.77-2.47-1.15-3.71Zm1482.42,181.4.41.25c.68-1.12,1.34-2.23,2-3.35l-.42-.25C1580.1,1318.85,1579.43,1320,1578.76,1321.08ZM101.05,1154.51c.4,1.23.81,2.46,1.22,3.69l.46-.16c-.41-1.22-.82-2.45-1.22-3.68Zm1469.54,179.85.41.26,2.07-3.31-.42-.26C1572,1332.16,1571.28,1333.26,1570.59,1334.36ZM106,1169.23q.63,1.83,1.29,3.66l.46-.16q-.66-1.83-1.29-3.66Zm1456.12,178.25.41.27,2.13-3.27-.41-.27Q1563.24,1345.84,1562.16,1347.48ZM111.3,1183.84c.45,1.22.91,2.43,1.36,3.64l.46-.17c-.46-1.21-.91-2.42-1.36-3.64Zm1442.19,176.59.4.28,2.2-3.23-.41-.27C1555,1358.29,1554.23,1359.36,1553.49,1360.43ZM116.85,1198.35l1.42,3.61.46-.18c-.48-1.2-1-2.4-1.43-3.61Zm1427.73,174.87.39.28,2.26-3.18-.4-.28ZM122.66,1212.75l1.5,3.58.45-.19-1.5-3.58Zm1412.76,173.07.39.29c.77-1,1.55-2.09,2.31-3.13l-.39-.29ZM128.76,1227l1.56,3.55.45-.2c-.53-1.18-1.05-2.36-1.57-3.55ZM1526,1398.25l.38.3,2.37-3.09-.38-.3Zm-1390.91-157c.54,1.18,1.09,2.35,1.63,3.52l.44-.2-1.63-3.52ZM1516.4,1410.5l.38.3,2.43-3-.38-.3ZM141.75,1255.26c.57,1.17,1.13,2.33,1.7,3.49l.44-.21c-.57-1.16-1.14-2.33-1.7-3.49Zm1364.79,167.3.37.31,2.49-3-.37-.31ZM148.65,1269.18l1.77,3.46.43-.22c-.59-1.15-1.18-2.3-1.76-3.46Zm1347.81,165.24.36.32,2.55-3-.37-.32ZM155.81,1283c.61,1.14,1.22,2.28,1.84,3.42l.42-.23-1.83-3.42Zm1330.34,163.11.36.33c.87-1,1.74-1.93,2.6-2.9l-.36-.33C1487.88,1444.16,1487,1445.13,1486.15,1446.09ZM163.24,1296.63c.63,1.13,1.26,2.27,1.9,3.39l.42-.23-1.9-3.39Zm1312.39,160.93.35.34,2.65-2.85-.35-.33ZM170.92,1310.15l2,3.35.42-.24-2-3.36Zm1294,158.68.35.34,2.7-2.8-.35-.34Zm-1286-145.31,2,3.31.42-.25c-.68-1.1-1.35-2.21-2-3.32Zm1275.08,156.37.34.35,2.76-2.75-.34-.34ZM187.05,1336.73c.69,1.1,1.39,2.19,2.09,3.28l.41-.26c-.7-1.09-1.4-2.18-2.09-3.28Zm1255.74,154,.33.35,2.81-2.69-.34-.35Zm-1247.3-141c.71,1.09,1.43,2.16,2.15,3.24l.4-.27-2.14-3.23Zm1235.94,151.58.33.36,2.86-2.64-.33-.35ZM204.18,1362.69c.73,1.07,1.47,2.14,2.21,3.2l.4-.27c-.74-1.07-1.48-2.13-2.21-3.2Zm1215.7,149.1.32.36,2.91-2.58-.33-.36ZM213.11,1375.43l2.27,3.16.39-.29-2.27-3.15Zm1195,146.55.31.37c1-.84,2-1.68,3-2.53l-.32-.37ZM222.28,1388l2.33,3.11.39-.29-2.33-3.12Zm1173.91,144,.31.38,3-2.48-.31-.37ZM231.69,1400.39l2.38,3.07.39-.3-2.39-3.07Zm1152.38,141.3.3.38,3.05-2.41-.3-.38ZM241.33,1412.6c.81,1,1.62,2,2.44,3l.38-.3-2.45-3Zm1130.44,138.59.29.39,3.1-2.35-.3-.39ZM251.2,1424.63c.83,1,1.66,2,2.5,3l.37-.32-2.5-3Zm1108.1,135.84.28.39,3.14-2.3-.29-.39Zm-1098-124,2.56,2.93.37-.32-2.56-2.93Zm1085.36,133,.28.4,3.18-2.24-.28-.4Zm-1075-121.38,2.61,2.88.36-.33-2.61-2.88Zm1062.21,130.17.28.4,3.21-2.17-.27-.41C1336,1576.84,1334.91,1577.57,1333.83,1578.29ZM282.16,1459.57c.88,1,1.77,1.89,2.67,2.83l.35-.33-2.67-2.83Zm1038.7,127.26.26.41,3.26-2.11-.26-.41Zm-1027.95-116,2.73,2.79.34-.35c-.91-.92-1.81-1.85-2.72-2.78Zm1014.82,124.31.25.41,3.3-2-.26-.41C1309.93,1593.77,1308.83,1594.45,1307.73,1595.13ZM303.88,1481.87l2.78,2.73.34-.35c-.93-.9-1.85-1.81-2.77-2.72Zm990.56,121.3.25.42,3.33-2-.25-.41ZM315.06,1492.71l2.83,2.68.33-.35-2.82-2.68ZM1281,1611l.24.42,3.37-1.93-.24-.42ZM326.45,1503.34c.95.88,1.91,1.75,2.87,2.62l.33-.36-2.88-2.62Zm941,115.16.23.43,3.41-1.86-.23-.43ZM338,1513.75l2.93,2.57.32-.37-2.93-2.57Zm915.69,112,.22.44,3.44-1.8-.22-.43ZM349.81,1523.94l3,2.51.31-.37c-1-.84-2-1.67-3-2.51Zm890.06,108.85.22.43,3.47-1.73-.22-.43ZM361.79,1533.9l3,2.46.3-.38-3-2.46Zm864.11,105.63.2.44,3.51-1.66-.21-.44ZM374,1543.64,377,1546l.3-.39c-1-.8-2.05-1.59-3.07-2.4ZM1211.8,1646l.2.44,3.54-1.59-.2-.44Zm-825.51-92.87,3.12,2.34.29-.39-3.11-2.34Zm811.3,99.08.19.45,3.56-1.53-.19-.45Zm-798.77-89.81,3.17,2.28.28-.4-3.16-2.28Zm784.44,95.75.18.45,3.59-1.46-.18-.45Zm-771.73-86.73c1.07.75,2.13,1.49,3.2,2.22l.28-.4-3.2-2.21Zm757.3,92.39.17.45,3.62-1.39-.18-.45Zm-744.42-83.6,3.24,2.16.27-.41-3.24-2.16Zm729.88,89,.17.46,3.64-1.32-.17-.46C1156.72,1668.33,1155.51,1668.77,1154.29,1669.2Zm-716.84-80.44,3.29,2.09.26-.41-3.29-2.09Zm702.21,85.55.15.46,3.67-1.25-.16-.46Zm-689-77.27,3.33,2,.25-.42-3.33-2Zm674.27,82.09.15.47,3.69-1.18-.15-.47ZM464,1605.08l3.36,2,.25-.42-3.37-2Zm646.1,78.6.13.46L1114,1683l-.14-.46Zm-632.59-70.83,3.41,1.91.23-.43-3.4-1.9Zm617.68,75.09.13.47,3.75-1.05-.14-.46Zm-604-67.57,3.44,1.84.23-.43-3.44-1.84Zm589,71.56.12.47,3.77-1-.13-.47ZM505,1627.63l3.47,1.77.22-.44c-1.16-.58-2.32-1.17-3.47-1.77Zm560.05,68,.12.47,3.78-.9-.11-.47Zm-546.1-61c1.17.58,2.34,1.14,3.51,1.71l.21-.44-3.51-1.7ZM1049.91,1699l.1.47,3.8-.82-.1-.48Zm-516.85-57.71,3.55,1.64.2-.44-3.54-1.64Zm501.61,60.83.1.47,3.81-.75-.09-.47Zm-15.29,2.82.09.48,3.83-.68-.09-.48Zm-472.1-57.2,3.58,1.57.19-.44-3.57-1.57ZM1004,1707.52l.07.48,3.85-.61-.08-.48ZM561.62,1654l3.6,1.5.19-.45-3.6-1.5Zm427,55.79.06.48,3.86-.53-.07-.48Zm-412.57-49.89,3.63,1.43.18-.45-3.63-1.43Zm397.14,51.84.06.48,3.86-.46-.06-.48Zm-382.57-46.22,3.66,1.36.17-.45-3.66-1.36Zm367.11,47.86,0,.48,3.87-.38,0-.48Zm-352.43-42.52q1.84.66,3.69,1.29l.16-.46-3.69-1.29Zm336.93,43.87,0,.48,3.88-.3,0-.49Zm-322.19-38.82,3.7,1.21.15-.46-3.7-1.22Zm306.68,39.87,0,.49c1.29-.08,2.59-.15,3.88-.24l0-.48Zm-291.86-35.12,3.72,1.15.14-.47-3.72-1.14Zm276.32,35.88,0,.49,3.89-.17,0-.48Zm-261.42-31.41,3.74,1.08.13-.47-3.73-1.07ZM895.67,1717v.48l3.89-.08v-.49Zm-230.89-27.68,3.76,1,.12-.47-3.75-1Zm215.34,27.84v.49H884v-.49Zm-200.28-23.94,3.78.93.12-.47-3.78-.93ZM864.57,1717v.49l3.89.06v-.49C867.16,1717,865.87,1717,864.57,1717ZM695,1696.79l3.79.86.11-.47-3.79-.86Zm154,19.78v.48l3.89.14v-.49Zm-138.84-16.45,3.81.78.1-.47-3.81-.79Zm123.31,15.72,0,.49,3.89.21,0-.49C836.08,1716,834.78,1715.92,833.49,1715.84Zm-108-12.69,3.83.72.08-.48-3.82-.71ZM818,1714.83l0,.49,3.88.28,0-.49Zm-77.21-8.93,3.84.64.07-.47-3.83-.65Zm61.73,7.63,0,.48,3.86.35.05-.48Zm-46.37-5.17,3.85.57.07-.48-3.84-.57Zm30.91,3.58,0,.48,3.86.42.06-.48Zm-15.5-1.41,3.86.5.06-.48-3.85-.5ZM92.34,1126.28l.54,1.87.47-.14-.54-1.86Z"/>
 
</svg>